<mxfile host="app.diagrams.net" agent="Mozilla/5.0 (Macintosh; Intel Mac OS X 10.15; rv:128.0) Gecko/20100101 Firefox/128.0" version="24.7.6" pages="4">
  <diagram id="HcZnP1PzJ4pb780_CWcu" name="VPC Endpoints">
    <mxGraphModel dx="759" dy="1110" grid="1" gridSize="10" guides="1" tooltips="1" connect="1" arrows="1" fold="1" page="1" pageScale="1" pageWidth="850" pageHeight="1100" math="0" shadow="0">
      <root>
        <mxCell id="0" />
        <mxCell id="1" parent="0" />
        <mxCell id="165Ceq_6XcHLCRyW-KY5-74" value="" style="rounded=0;whiteSpace=wrap;html=1;" vertex="1" parent="1">
          <mxGeometry x="280" y="200" width="1200" height="680" as="geometry" />
        </mxCell>
        <mxCell id="165Ceq_6XcHLCRyW-KY5-1" value="AWS Morocco Account" style="points=[[0,0],[0.25,0],[0.5,0],[0.75,0],[1,0],[1,0.25],[1,0.5],[1,0.75],[1,1],[0.75,1],[0.5,1],[0.25,1],[0,1],[0,0.75],[0,0.5],[0,0.25]];outlineConnect=0;gradientColor=none;html=1;whiteSpace=wrap;fontSize=12;fontStyle=0;container=1;pointerEvents=0;collapsible=0;recursiveResize=0;shape=mxgraph.aws4.group;grIcon=mxgraph.aws4.group_account;strokeColor=#CD2264;fillColor=none;verticalAlign=top;align=left;spacingLeft=30;fontColor=#CD2264;dashed=0;" vertex="1" parent="1">
          <mxGeometry x="320" y="240" width="1130" height="600" as="geometry" />
        </mxCell>
        <mxCell id="165Ceq_6XcHLCRyW-KY5-2" value="Region" style="points=[[0,0],[0.25,0],[0.5,0],[0.75,0],[1,0],[1,0.25],[1,0.5],[1,0.75],[1,1],[0.75,1],[0.5,1],[0.25,1],[0,1],[0,0.75],[0,0.5],[0,0.25]];outlineConnect=0;gradientColor=none;html=1;whiteSpace=wrap;fontSize=12;fontStyle=0;container=1;pointerEvents=0;collapsible=0;recursiveResize=0;shape=mxgraph.aws4.group;grIcon=mxgraph.aws4.group_region;strokeColor=#00A4A6;fillColor=none;verticalAlign=top;align=left;spacingLeft=30;fontColor=#147EBA;dashed=1;" vertex="1" parent="165Ceq_6XcHLCRyW-KY5-1">
          <mxGeometry x="40" y="40" width="1040" height="520" as="geometry" />
        </mxCell>
        <mxCell id="165Ceq_6XcHLCRyW-KY5-35" value="VPC" style="points=[[0,0],[0.25,0],[0.5,0],[0.75,0],[1,0],[1,0.25],[1,0.5],[1,0.75],[1,1],[0.75,1],[0.5,1],[0.25,1],[0,1],[0,0.75],[0,0.5],[0,0.25]];outlineConnect=0;gradientColor=none;html=1;whiteSpace=wrap;fontSize=12;fontStyle=0;container=1;pointerEvents=0;collapsible=0;recursiveResize=0;shape=mxgraph.aws4.group;grIcon=mxgraph.aws4.group_vpc2;strokeColor=#8C4FFF;fillColor=none;verticalAlign=top;align=left;spacingLeft=30;fontColor=#AAB7B8;dashed=0;" vertex="1" parent="165Ceq_6XcHLCRyW-KY5-2">
          <mxGeometry x="40" y="40" width="720" height="440" as="geometry" />
        </mxCell>
        <mxCell id="165Ceq_6XcHLCRyW-KY5-36" value="Subnet 1" style="sketch=0;outlineConnect=0;gradientColor=none;html=1;whiteSpace=wrap;fontSize=12;fontStyle=0;shape=mxgraph.aws4.group;grIcon=mxgraph.aws4.group_subnet;strokeColor=#879196;fillColor=none;verticalAlign=top;align=left;spacingLeft=30;fontColor=#879196;dashed=0;" vertex="1" parent="165Ceq_6XcHLCRyW-KY5-35">
          <mxGeometry x="40" y="40" width="400" height="160" as="geometry" />
        </mxCell>
        <mxCell id="165Ceq_6XcHLCRyW-KY5-37" value="Subnet 2" style="sketch=0;outlineConnect=0;gradientColor=none;html=1;whiteSpace=wrap;fontSize=12;fontStyle=0;shape=mxgraph.aws4.group;grIcon=mxgraph.aws4.group_subnet;strokeColor=#879196;fillColor=none;verticalAlign=top;align=left;spacingLeft=30;fontColor=#879196;dashed=0;" vertex="1" parent="165Ceq_6XcHLCRyW-KY5-35">
          <mxGeometry x="40" y="240" width="400" height="160" as="geometry" />
        </mxCell>
        <mxCell id="165Ceq_6XcHLCRyW-KY5-42" value="&lt;div style=&quot;font-size: 6px;&quot;&gt;&lt;b&gt;&lt;sup&gt;&lt;font style=&quot;font-size: 6px;&quot;&gt;&lt;i&gt;VPC Interface&lt;/i&gt;&amp;nbsp;&lt;/font&gt;&lt;/sup&gt;&lt;/b&gt;&lt;/div&gt;&lt;div style=&quot;font-size: 6px;&quot;&gt;&lt;sup&gt;&lt;font style=&quot;font-size: 6px;&quot;&gt;Elastic Network &lt;br&gt;&lt;/font&gt;&lt;/sup&gt;&lt;/div&gt;&lt;div style=&quot;font-size: 6px;&quot;&gt;&lt;sup&gt;&lt;font style=&quot;font-size: 6px;&quot;&gt;Interface&lt;/font&gt;&lt;/sup&gt;&lt;b&gt;&lt;sup&gt;&lt;font style=&quot;font-size: 6px;&quot;&gt;&lt;br&gt;&lt;/font&gt;&lt;/sup&gt;&lt;/b&gt;&lt;/div&gt;" style="sketch=0;outlineConnect=0;fontColor=#232F3E;gradientColor=none;fillColor=#8C4FFF;strokeColor=none;dashed=0;verticalLabelPosition=bottom;verticalAlign=top;align=center;html=1;fontSize=12;fontStyle=0;aspect=fixed;pointerEvents=1;shape=mxgraph.aws4.elastic_network_interface;" vertex="1" parent="165Ceq_6XcHLCRyW-KY5-35">
          <mxGeometry x="320" y="299.5" width="39" height="39" as="geometry" />
        </mxCell>
        <mxCell id="165Ceq_6XcHLCRyW-KY5-43" value="&lt;div style=&quot;font-size: 6px;&quot;&gt;&lt;b&gt;&lt;font style=&quot;font-size: 6px;&quot;&gt;Gateway VPC &lt;br&gt;&lt;/font&gt;&lt;/b&gt;&lt;/div&gt;&lt;div style=&quot;font-size: 6px;&quot;&gt;&lt;b&gt;&lt;font style=&quot;font-size: 6px;&quot;&gt;&lt;font style=&quot;font-size: 6px;&quot;&gt;Endpoint&lt;/font&gt;&lt;font style=&quot;font-size: 6px;&quot;&gt;&lt;br&gt;&lt;/font&gt;&lt;/font&gt;&lt;/b&gt;&lt;/div&gt;" style="sketch=0;outlineConnect=0;fontColor=#232F3E;gradientColor=none;fillColor=#8C4FFF;strokeColor=none;dashed=0;verticalLabelPosition=bottom;verticalAlign=top;align=center;html=1;fontSize=12;fontStyle=0;aspect=fixed;pointerEvents=1;shape=mxgraph.aws4.endpoints;" vertex="1" parent="165Ceq_6XcHLCRyW-KY5-35">
          <mxGeometry x="560" y="61.5" width="39" height="39" as="geometry" />
        </mxCell>
        <mxCell id="165Ceq_6XcHLCRyW-KY5-47" value="" style="sketch=0;points=[[0,0,0],[0.25,0,0],[0.5,0,0],[0.75,0,0],[1,0,0],[0,1,0],[0.25,1,0],[0.5,1,0],[0.75,1,0],[1,1,0],[0,0.25,0],[0,0.5,0],[0,0.75,0],[1,0.25,0],[1,0.5,0],[1,0.75,0]];outlineConnect=0;fontColor=#232F3E;fillColor=#ED7100;strokeColor=#ffffff;dashed=0;verticalLabelPosition=bottom;verticalAlign=top;align=center;html=1;fontSize=12;fontStyle=0;aspect=fixed;shape=mxgraph.aws4.resourceIcon;resIcon=mxgraph.aws4.ec2;" vertex="1" parent="165Ceq_6XcHLCRyW-KY5-35">
          <mxGeometry x="160" y="60.5" width="39" height="39" as="geometry" />
        </mxCell>
        <mxCell id="165Ceq_6XcHLCRyW-KY5-48" value="" style="sketch=0;points=[[0,0,0],[0.25,0,0],[0.5,0,0],[0.75,0,0],[1,0,0],[0,1,0],[0.25,1,0],[0.5,1,0],[0.75,1,0],[1,1,0],[0,0.25,0],[0,0.5,0],[0,0.75,0],[1,0.25,0],[1,0.5,0],[1,0.75,0]];outlineConnect=0;fontColor=#232F3E;fillColor=#ED7100;strokeColor=#ffffff;dashed=0;verticalLabelPosition=bottom;verticalAlign=top;align=center;html=1;fontSize=12;fontStyle=0;aspect=fixed;shape=mxgraph.aws4.resourceIcon;resIcon=mxgraph.aws4.ec2;" vertex="1" parent="165Ceq_6XcHLCRyW-KY5-35">
          <mxGeometry x="119" y="100.5" width="40" height="40" as="geometry" />
        </mxCell>
        <mxCell id="165Ceq_6XcHLCRyW-KY5-49" value="" style="sketch=0;points=[[0,0,0],[0.25,0,0],[0.5,0,0],[0.75,0,0],[1,0,0],[0,1,0],[0.25,1,0],[0.5,1,0],[0.75,1,0],[1,1,0],[0,0.25,0],[0,0.5,0],[0,0.75,0],[1,0.25,0],[1,0.5,0],[1,0.75,0]];outlineConnect=0;fontColor=#232F3E;fillColor=#ED7100;strokeColor=#ffffff;dashed=0;verticalLabelPosition=bottom;verticalAlign=top;align=center;html=1;fontSize=12;fontStyle=0;aspect=fixed;shape=mxgraph.aws4.resourceIcon;resIcon=mxgraph.aws4.ec2;" vertex="1" parent="165Ceq_6XcHLCRyW-KY5-35">
          <mxGeometry x="159" y="139.5" width="39" height="39" as="geometry" />
        </mxCell>
        <mxCell id="165Ceq_6XcHLCRyW-KY5-50" value="" style="endArrow=classicThin;html=1;rounded=0;dashed=1;flowAnimation=1;endFill=1;strokeColor=#10739e;fillColor=#b1ddf0;" edge="1" parent="165Ceq_6XcHLCRyW-KY5-35" target="165Ceq_6XcHLCRyW-KY5-43">
          <mxGeometry width="50" height="50" relative="1" as="geometry">
            <mxPoint x="210" y="80" as="sourcePoint" />
            <mxPoint x="560" y="61.5" as="targetPoint" />
            <Array as="points">
              <mxPoint x="200" y="80" />
              <mxPoint x="210" y="80" />
              <mxPoint x="340" y="80" />
              <mxPoint x="480" y="80" />
            </Array>
          </mxGeometry>
        </mxCell>
        <mxCell id="165Ceq_6XcHLCRyW-KY5-53" value="&lt;div style=&quot;font-size: 6px;&quot;&gt;&lt;b&gt;&lt;font style=&quot;font-size: 6px;&quot;&gt;Gateway VPC &lt;br&gt;&lt;/font&gt;&lt;/b&gt;&lt;/div&gt;&lt;div style=&quot;font-size: 6px;&quot;&gt;&lt;b&gt;&lt;font style=&quot;font-size: 6px;&quot;&gt;&lt;font style=&quot;font-size: 6px;&quot;&gt;Endpoint&lt;/font&gt;&lt;font style=&quot;font-size: 6px;&quot;&gt;&lt;br&gt;&lt;/font&gt;&lt;/font&gt;&lt;/b&gt;&lt;/div&gt;" style="sketch=0;outlineConnect=0;fontColor=#232F3E;gradientColor=none;fillColor=#8C4FFF;strokeColor=none;dashed=0;verticalLabelPosition=bottom;verticalAlign=top;align=center;html=1;fontSize=12;fontStyle=0;aspect=fixed;pointerEvents=1;shape=mxgraph.aws4.endpoints;" vertex="1" parent="165Ceq_6XcHLCRyW-KY5-35">
          <mxGeometry x="560" y="139.5" width="39" height="39" as="geometry" />
        </mxCell>
        <mxCell id="165Ceq_6XcHLCRyW-KY5-54" value="" style="endArrow=classicThin;html=1;rounded=0;dashed=1;flowAnimation=1;endFill=1;strokeColor=#10739e;fillColor=#b1ddf0;" edge="1" parent="165Ceq_6XcHLCRyW-KY5-35" target="165Ceq_6XcHLCRyW-KY5-53">
          <mxGeometry width="50" height="50" relative="1" as="geometry">
            <mxPoint x="210" y="160" as="sourcePoint" />
            <mxPoint x="560" y="120" as="targetPoint" />
            <Array as="points">
              <mxPoint x="200" y="160" />
              <mxPoint x="210" y="160" />
              <mxPoint x="340" y="160" />
              <mxPoint x="480" y="160" />
            </Array>
          </mxGeometry>
        </mxCell>
        <mxCell id="165Ceq_6XcHLCRyW-KY5-65" value="" style="sketch=0;points=[[0,0,0],[0.25,0,0],[0.5,0,0],[0.75,0,0],[1,0,0],[0,1,0],[0.25,1,0],[0.5,1,0],[0.75,1,0],[1,1,0],[0,0.25,0],[0,0.5,0],[0,0.75,0],[1,0.25,0],[1,0.5,0],[1,0.75,0]];outlineConnect=0;fontColor=#232F3E;fillColor=#ED7100;strokeColor=#ffffff;dashed=0;verticalLabelPosition=bottom;verticalAlign=top;align=center;html=1;fontSize=12;fontStyle=0;aspect=fixed;shape=mxgraph.aws4.resourceIcon;resIcon=mxgraph.aws4.ec2;" vertex="1" parent="165Ceq_6XcHLCRyW-KY5-35">
          <mxGeometry x="160" y="259.5" width="39" height="39" as="geometry" />
        </mxCell>
        <mxCell id="165Ceq_6XcHLCRyW-KY5-67" value="" style="sketch=0;points=[[0,0,0],[0.25,0,0],[0.5,0,0],[0.75,0,0],[1,0,0],[0,1,0],[0.25,1,0],[0.5,1,0],[0.75,1,0],[1,1,0],[0,0.25,0],[0,0.5,0],[0,0.75,0],[1,0.25,0],[1,0.5,0],[1,0.75,0]];outlineConnect=0;fontColor=#232F3E;fillColor=#ED7100;strokeColor=#ffffff;dashed=0;verticalLabelPosition=bottom;verticalAlign=top;align=center;html=1;fontSize=12;fontStyle=0;aspect=fixed;shape=mxgraph.aws4.resourceIcon;resIcon=mxgraph.aws4.ec2;" vertex="1" parent="165Ceq_6XcHLCRyW-KY5-35">
          <mxGeometry x="160" y="338.5" width="39" height="39" as="geometry" />
        </mxCell>
        <mxCell id="165Ceq_6XcHLCRyW-KY5-68" style="edgeStyle=orthogonalEdgeStyle;rounded=0;orthogonalLoop=1;jettySize=auto;html=1;dashed=1;" edge="1" parent="165Ceq_6XcHLCRyW-KY5-35" source="165Ceq_6XcHLCRyW-KY5-66" target="165Ceq_6XcHLCRyW-KY5-42">
          <mxGeometry relative="1" as="geometry" />
        </mxCell>
        <mxCell id="165Ceq_6XcHLCRyW-KY5-66" value="" style="sketch=0;points=[[0,0,0],[0.25,0,0],[0.5,0,0],[0.75,0,0],[1,0,0],[0,1,0],[0.25,1,0],[0.5,1,0],[0.75,1,0],[1,1,0],[0,0.25,0],[0,0.5,0],[0,0.75,0],[1,0.25,0],[1,0.5,0],[1,0.75,0]];outlineConnect=0;fontColor=#232F3E;fillColor=#ED7100;strokeColor=#ffffff;dashed=0;verticalLabelPosition=bottom;verticalAlign=top;align=center;html=1;fontSize=12;fontStyle=0;aspect=fixed;shape=mxgraph.aws4.resourceIcon;resIcon=mxgraph.aws4.ec2;" vertex="1" parent="165Ceq_6XcHLCRyW-KY5-35">
          <mxGeometry x="119" y="298.5" width="40" height="40" as="geometry" />
        </mxCell>
        <mxCell id="165Ceq_6XcHLCRyW-KY5-41" value="&lt;b&gt;&lt;font size=&quot;1&quot;&gt;&lt;sup style=&quot;font-size: 6px;&quot;&gt;S3 Bucket&lt;/sup&gt;&lt;/font&gt;&lt;/b&gt;" style="sketch=0;points=[[0,0,0],[0.25,0,0],[0.5,0,0],[0.75,0,0],[1,0,0],[0,1,0],[0.25,1,0],[0.5,1,0],[0.75,1,0],[1,1,0],[0,0.25,0],[0,0.5,0],[0,0.75,0],[1,0.25,0],[1,0.5,0],[1,0.75,0]];outlineConnect=0;fontColor=#232F3E;fillColor=#7AA116;strokeColor=#ffffff;dashed=0;verticalLabelPosition=bottom;verticalAlign=top;align=center;html=1;fontSize=12;fontStyle=0;aspect=fixed;shape=mxgraph.aws4.resourceIcon;resIcon=mxgraph.aws4.s3;" vertex="1" parent="165Ceq_6XcHLCRyW-KY5-2">
          <mxGeometry x="880" y="100.5" width="40" height="40" as="geometry" />
        </mxCell>
        <mxCell id="165Ceq_6XcHLCRyW-KY5-46" value="&lt;font style=&quot;font-size: 6px;&quot;&gt;&lt;b&gt;DynamoDB&lt;/b&gt;&lt;/font&gt;" style="sketch=0;points=[[0,0,0],[0.25,0,0],[0.5,0,0],[0.75,0,0],[1,0,0],[0,1,0],[0.25,1,0],[0.5,1,0],[0.75,1,0],[1,1,0],[0,0.25,0],[0,0.5,0],[0,0.75,0],[1,0.25,0],[1,0.5,0],[1,0.75,0]];outlineConnect=0;fontColor=#232F3E;fillColor=#C925D1;strokeColor=#ffffff;dashed=0;verticalLabelPosition=bottom;verticalAlign=top;align=center;html=1;fontSize=12;fontStyle=0;aspect=fixed;shape=mxgraph.aws4.resourceIcon;resIcon=mxgraph.aws4.dynamodb;" vertex="1" parent="165Ceq_6XcHLCRyW-KY5-2">
          <mxGeometry x="880" y="180.5" width="38" height="38" as="geometry" />
        </mxCell>
        <mxCell id="165Ceq_6XcHLCRyW-KY5-51" style="edgeStyle=orthogonalEdgeStyle;rounded=0;orthogonalLoop=1;jettySize=auto;html=1;entryX=0;entryY=0.5;entryDx=0;entryDy=0;entryPerimeter=0;dashed=1;flowAnimation=1;" edge="1" parent="165Ceq_6XcHLCRyW-KY5-2" source="165Ceq_6XcHLCRyW-KY5-43" target="165Ceq_6XcHLCRyW-KY5-41">
          <mxGeometry relative="1" as="geometry">
            <Array as="points">
              <mxPoint x="720" y="121" />
              <mxPoint x="880" y="120" />
            </Array>
          </mxGeometry>
        </mxCell>
        <mxCell id="165Ceq_6XcHLCRyW-KY5-55" style="edgeStyle=orthogonalEdgeStyle;rounded=0;orthogonalLoop=1;jettySize=auto;html=1;entryX=0;entryY=0.5;entryDx=0;entryDy=0;entryPerimeter=0;dashed=1;flowAnimation=1;" edge="1" parent="165Ceq_6XcHLCRyW-KY5-2" source="165Ceq_6XcHLCRyW-KY5-53" target="165Ceq_6XcHLCRyW-KY5-46">
          <mxGeometry relative="1" as="geometry" />
        </mxCell>
        <mxCell id="165Ceq_6XcHLCRyW-KY5-56" value="&lt;b&gt;&lt;font size=&quot;1&quot;&gt;&lt;sup style=&quot;font-size: 6px;&quot;&gt;S3 Bucket&lt;/sup&gt;&lt;/font&gt;&lt;/b&gt;" style="sketch=0;points=[[0,0,0],[0.25,0,0],[0.5,0,0],[0.75,0,0],[1,0,0],[0,1,0],[0.25,1,0],[0.5,1,0],[0.75,1,0],[1,1,0],[0,0.25,0],[0,0.5,0],[0,0.75,0],[1,0.25,0],[1,0.5,0],[1,0.75,0]];outlineConnect=0;fontColor=#232F3E;fillColor=#7AA116;strokeColor=#ffffff;dashed=0;verticalLabelPosition=bottom;verticalAlign=top;align=center;html=1;fontSize=12;fontStyle=0;aspect=fixed;shape=mxgraph.aws4.resourceIcon;resIcon=mxgraph.aws4.s3;" vertex="1" parent="165Ceq_6XcHLCRyW-KY5-2">
          <mxGeometry x="840" y="320" width="40" height="40" as="geometry" />
        </mxCell>
        <mxCell id="165Ceq_6XcHLCRyW-KY5-57" value="&lt;font style=&quot;font-size: 6px;&quot;&gt;&lt;b&gt;DynamoDB&lt;/b&gt;&lt;/font&gt;" style="sketch=0;points=[[0,0,0],[0.25,0,0],[0.5,0,0],[0.75,0,0],[1,0,0],[0,1,0],[0.25,1,0],[0.5,1,0],[0.75,1,0],[1,1,0],[0,0.25,0],[0,0.5,0],[0,0.75,0],[1,0.25,0],[1,0.5,0],[1,0.75,0]];outlineConnect=0;fontColor=#232F3E;fillColor=#C925D1;strokeColor=#ffffff;dashed=0;verticalLabelPosition=bottom;verticalAlign=top;align=center;html=1;fontSize=12;fontStyle=0;aspect=fixed;shape=mxgraph.aws4.resourceIcon;resIcon=mxgraph.aws4.dynamodb;" vertex="1" parent="165Ceq_6XcHLCRyW-KY5-2">
          <mxGeometry x="840" y="400" width="40" height="40" as="geometry" />
        </mxCell>
        <mxCell id="165Ceq_6XcHLCRyW-KY5-58" value="" style="sketch=0;points=[[0,0,0],[0.25,0,0],[0.5,0,0],[0.75,0,0],[1,0,0],[0,1,0],[0.25,1,0],[0.5,1,0],[0.75,1,0],[1,1,0],[0,0.25,0],[0,0.5,0],[0,0.75,0],[1,0.25,0],[1,0.5,0],[1,0.75,0]];outlineConnect=0;fontColor=#232F3E;fillColor=#E7157B;strokeColor=#ffffff;dashed=0;verticalLabelPosition=bottom;verticalAlign=top;align=center;html=1;fontSize=12;fontStyle=0;aspect=fixed;shape=mxgraph.aws4.resourceIcon;resIcon=mxgraph.aws4.sns;" vertex="1" parent="165Ceq_6XcHLCRyW-KY5-2">
          <mxGeometry x="900" y="320" width="40" height="40" as="geometry" />
        </mxCell>
        <mxCell id="165Ceq_6XcHLCRyW-KY5-59" value="" style="sketch=0;points=[[0,0,0],[0.25,0,0],[0.5,0,0],[0.75,0,0],[1,0,0],[0,1,0],[0.25,1,0],[0.5,1,0],[0.75,1,0],[1,1,0],[0,0.25,0],[0,0.5,0],[0,0.75,0],[1,0.25,0],[1,0.5,0],[1,0.75,0]];outlineConnect=0;fontColor=#232F3E;fillColor=#E7157B;strokeColor=#ffffff;dashed=0;verticalLabelPosition=bottom;verticalAlign=top;align=center;html=1;fontSize=12;fontStyle=0;aspect=fixed;shape=mxgraph.aws4.resourceIcon;resIcon=mxgraph.aws4.sqs;" vertex="1" parent="165Ceq_6XcHLCRyW-KY5-2">
          <mxGeometry x="900" y="400" width="40" height="40" as="geometry" />
        </mxCell>
        <mxCell id="165Ceq_6XcHLCRyW-KY5-60" value="" style="sketch=0;points=[[0,0,0],[0.25,0,0],[0.5,0,0],[0.75,0,0],[1,0,0],[0,1,0],[0.25,1,0],[0.5,1,0],[0.75,1,0],[1,1,0],[0,0.25,0],[0,0.5,0],[0,0.75,0],[1,0.25,0],[1,0.5,0],[1,0.75,0]];points=[[0,0,0],[0.25,0,0],[0.5,0,0],[0.75,0,0],[1,0,0],[0,1,0],[0.25,1,0],[0.5,1,0],[0.75,1,0],[1,1,0],[0,0.25,0],[0,0.5,0],[0,0.75,0],[1,0.25,0],[1,0.5,0],[1,0.75,0]];outlineConnect=0;fontColor=#232F3E;fillColor=#E7157B;strokeColor=#ffffff;dashed=0;verticalLabelPosition=bottom;verticalAlign=top;align=center;html=1;fontSize=12;fontStyle=0;aspect=fixed;shape=mxgraph.aws4.resourceIcon;resIcon=mxgraph.aws4.cloudwatch_2;" vertex="1" parent="165Ceq_6XcHLCRyW-KY5-2">
          <mxGeometry x="960" y="320" width="40" height="40" as="geometry" />
        </mxCell>
        <mxCell id="165Ceq_6XcHLCRyW-KY5-61" value="&lt;b&gt;&lt;font style=&quot;font-size: 9px;&quot;&gt;More AWS Services ...&lt;/font&gt;&lt;/b&gt;" style="text;html=1;align=center;verticalAlign=middle;whiteSpace=wrap;rounded=0;" vertex="1" parent="165Ceq_6XcHLCRyW-KY5-2">
          <mxGeometry x="950" y="405" width="60" height="30" as="geometry" />
        </mxCell>
        <mxCell id="165Ceq_6XcHLCRyW-KY5-70" value="" style="rounded=0;whiteSpace=wrap;html=1;fillColor=none;opacity=20;dashed=1;" vertex="1" parent="165Ceq_6XcHLCRyW-KY5-2">
          <mxGeometry x="820" y="300" width="200" height="180" as="geometry" />
        </mxCell>
        <mxCell id="165Ceq_6XcHLCRyW-KY5-73" style="edgeStyle=orthogonalEdgeStyle;rounded=0;orthogonalLoop=1;jettySize=auto;html=1;entryX=-0.003;entryY=0.332;entryDx=0;entryDy=0;entryPerimeter=0;dashed=1;" edge="1" parent="165Ceq_6XcHLCRyW-KY5-2" source="165Ceq_6XcHLCRyW-KY5-42" target="165Ceq_6XcHLCRyW-KY5-70">
          <mxGeometry relative="1" as="geometry" />
        </mxCell>
      </root>
    </mxGraphModel>
  </diagram>
  <diagram id="4Pcvn4dTxhlnLWysoOBe" name="Gateway Endpoints">
    <mxGraphModel dx="2310" dy="1399" grid="1" gridSize="10" guides="1" tooltips="1" connect="1" arrows="1" fold="1" page="1" pageScale="1" pageWidth="850" pageHeight="1100" math="0" shadow="0">
      <root>
        <mxCell id="0" />
        <mxCell id="1" parent="0" />
        <mxCell id="WEhvkRuG5EVSWCtm5pgU-1" value="" style="rounded=0;whiteSpace=wrap;html=1;" vertex="1" parent="1">
          <mxGeometry x="280" y="200" width="1200" height="680" as="geometry" />
        </mxCell>
        <mxCell id="WEhvkRuG5EVSWCtm5pgU-2" value="AWS Morocco Account" style="points=[[0,0],[0.25,0],[0.5,0],[0.75,0],[1,0],[1,0.25],[1,0.5],[1,0.75],[1,1],[0.75,1],[0.5,1],[0.25,1],[0,1],[0,0.75],[0,0.5],[0,0.25]];outlineConnect=0;gradientColor=none;html=1;whiteSpace=wrap;fontSize=12;fontStyle=0;container=1;pointerEvents=0;collapsible=0;recursiveResize=0;shape=mxgraph.aws4.group;grIcon=mxgraph.aws4.group_account;strokeColor=#CD2264;fillColor=none;verticalAlign=top;align=left;spacingLeft=30;fontColor=#CD2264;dashed=0;" vertex="1" parent="1">
          <mxGeometry x="320" y="240" width="1130" height="600" as="geometry" />
        </mxCell>
        <mxCell id="WEhvkRuG5EVSWCtm5pgU-3" value="Region" style="points=[[0,0],[0.25,0],[0.5,0],[0.75,0],[1,0],[1,0.25],[1,0.5],[1,0.75],[1,1],[0.75,1],[0.5,1],[0.25,1],[0,1],[0,0.75],[0,0.5],[0,0.25]];outlineConnect=0;gradientColor=none;html=1;whiteSpace=wrap;fontSize=12;fontStyle=0;container=1;pointerEvents=0;collapsible=0;recursiveResize=0;shape=mxgraph.aws4.group;grIcon=mxgraph.aws4.group_region;strokeColor=#00A4A6;fillColor=none;verticalAlign=top;align=left;spacingLeft=30;fontColor=#147EBA;dashed=1;" vertex="1" parent="WEhvkRuG5EVSWCtm5pgU-2">
          <mxGeometry x="40" y="40" width="1040" height="520" as="geometry" />
        </mxCell>
        <mxCell id="WEhvkRuG5EVSWCtm5pgU-4" value="VPC" style="points=[[0,0],[0.25,0],[0.5,0],[0.75,0],[1,0],[1,0.25],[1,0.5],[1,0.75],[1,1],[0.75,1],[0.5,1],[0.25,1],[0,1],[0,0.75],[0,0.5],[0,0.25]];outlineConnect=0;gradientColor=none;html=1;whiteSpace=wrap;fontSize=12;fontStyle=0;container=1;pointerEvents=0;collapsible=0;recursiveResize=0;shape=mxgraph.aws4.group;grIcon=mxgraph.aws4.group_vpc2;strokeColor=#8C4FFF;fillColor=none;verticalAlign=top;align=left;spacingLeft=30;fontColor=#AAB7B8;dashed=0;" vertex="1" parent="WEhvkRuG5EVSWCtm5pgU-3">
          <mxGeometry x="40" y="40" width="720" height="440" as="geometry" />
        </mxCell>
        <mxCell id="WEhvkRuG5EVSWCtm5pgU-5" value="Subnet 1" style="sketch=0;outlineConnect=0;gradientColor=none;html=1;whiteSpace=wrap;fontSize=12;fontStyle=0;shape=mxgraph.aws4.group;grIcon=mxgraph.aws4.group_subnet;strokeColor=#879196;fillColor=none;verticalAlign=top;align=left;spacingLeft=30;fontColor=#879196;dashed=0;" vertex="1" parent="WEhvkRuG5EVSWCtm5pgU-4">
          <mxGeometry x="40" y="40" width="400" height="160" as="geometry" />
        </mxCell>
        <mxCell id="WEhvkRuG5EVSWCtm5pgU-8" value="&lt;div style=&quot;font-size: 6px;&quot;&gt;&lt;b&gt;&lt;font style=&quot;font-size: 6px;&quot;&gt;Gateway VPC &lt;br&gt;&lt;/font&gt;&lt;/b&gt;&lt;/div&gt;&lt;div style=&quot;font-size: 6px;&quot;&gt;&lt;b&gt;&lt;font style=&quot;font-size: 6px;&quot;&gt;&lt;font style=&quot;font-size: 6px;&quot;&gt;Endpoint&lt;/font&gt;&lt;font style=&quot;font-size: 6px;&quot;&gt;&lt;br&gt;&lt;/font&gt;&lt;/font&gt;&lt;/b&gt;&lt;/div&gt;" style="sketch=0;outlineConnect=0;fontColor=#232F3E;gradientColor=none;fillColor=#8C4FFF;strokeColor=none;dashed=0;verticalLabelPosition=bottom;verticalAlign=top;align=center;html=1;fontSize=12;fontStyle=0;aspect=fixed;pointerEvents=1;shape=mxgraph.aws4.endpoints;" vertex="1" parent="WEhvkRuG5EVSWCtm5pgU-4">
          <mxGeometry x="560" y="100.5" width="39" height="39" as="geometry" />
        </mxCell>
        <mxCell id="WEhvkRuG5EVSWCtm5pgU-9" value="" style="sketch=0;points=[[0,0,0],[0.25,0,0],[0.5,0,0],[0.75,0,0],[1,0,0],[0,1,0],[0.25,1,0],[0.5,1,0],[0.75,1,0],[1,1,0],[0,0.25,0],[0,0.5,0],[0,0.75,0],[1,0.25,0],[1,0.5,0],[1,0.75,0]];outlineConnect=0;fontColor=#232F3E;fillColor=#ED7100;strokeColor=#ffffff;dashed=0;verticalLabelPosition=bottom;verticalAlign=top;align=center;html=1;fontSize=12;fontStyle=0;aspect=fixed;shape=mxgraph.aws4.resourceIcon;resIcon=mxgraph.aws4.ec2;" vertex="1" parent="WEhvkRuG5EVSWCtm5pgU-4">
          <mxGeometry x="160" y="100" width="39" height="39" as="geometry" />
        </mxCell>
        <mxCell id="WEhvkRuG5EVSWCtm5pgU-11" value="" style="sketch=0;points=[[0,0,0],[0.25,0,0],[0.5,0,0],[0.75,0,0],[1,0,0],[0,1,0],[0.25,1,0],[0.5,1,0],[0.75,1,0],[1,1,0],[0,0.25,0],[0,0.5,0],[0,0.75,0],[1,0.25,0],[1,0.5,0],[1,0.75,0]];outlineConnect=0;fontColor=#232F3E;fillColor=#ED7100;strokeColor=#ffffff;dashed=0;verticalLabelPosition=bottom;verticalAlign=top;align=center;html=1;fontSize=12;fontStyle=0;aspect=fixed;shape=mxgraph.aws4.resourceIcon;resIcon=mxgraph.aws4.ec2;" vertex="1" parent="WEhvkRuG5EVSWCtm5pgU-4">
          <mxGeometry x="160" y="280.5" width="39" height="39" as="geometry" />
        </mxCell>
        <mxCell id="WEhvkRuG5EVSWCtm5pgU-12" value="" style="endArrow=classicThin;html=1;rounded=0;dashed=1;flowAnimation=1;endFill=1;strokeColor=#10739e;fillColor=#b1ddf0;" edge="1" parent="WEhvkRuG5EVSWCtm5pgU-4">
          <mxGeometry width="50" height="50" relative="1" as="geometry">
            <mxPoint x="209" y="119" as="sourcePoint" />
            <mxPoint x="559" y="119.80402010050261" as="targetPoint" />
            <Array as="points">
              <mxPoint x="199" y="119" />
              <mxPoint x="209" y="119" />
              <mxPoint x="339" y="119" />
              <mxPoint x="479" y="119" />
            </Array>
          </mxGeometry>
        </mxCell>
        <mxCell id="WEhvkRuG5EVSWCtm5pgU-13" value="&lt;div style=&quot;font-size: 6px;&quot;&gt;&lt;b&gt;&lt;font style=&quot;font-size: 6px;&quot;&gt;Gateway VPC &lt;br&gt;&lt;/font&gt;&lt;/b&gt;&lt;/div&gt;&lt;div style=&quot;font-size: 6px;&quot;&gt;&lt;b&gt;&lt;font style=&quot;font-size: 6px;&quot;&gt;&lt;font style=&quot;font-size: 6px;&quot;&gt;Endpoint&lt;/font&gt;&lt;font style=&quot;font-size: 6px;&quot;&gt;&lt;br&gt;&lt;/font&gt;&lt;/font&gt;&lt;/b&gt;&lt;/div&gt;" style="sketch=0;outlineConnect=0;fontColor=#232F3E;gradientColor=none;fillColor=#8C4FFF;strokeColor=none;dashed=0;verticalLabelPosition=bottom;verticalAlign=top;align=center;html=1;fontSize=12;fontStyle=0;aspect=fixed;pointerEvents=1;shape=mxgraph.aws4.endpoints;" vertex="1" parent="WEhvkRuG5EVSWCtm5pgU-4">
          <mxGeometry x="560" y="280.5" width="39" height="39" as="geometry" />
        </mxCell>
        <mxCell id="WEhvkRuG5EVSWCtm5pgU-14" value="" style="endArrow=classicThin;html=1;rounded=0;dashed=1;flowAnimation=1;endFill=1;strokeColor=#10739e;fillColor=#b1ddf0;" edge="1" parent="WEhvkRuG5EVSWCtm5pgU-4" target="WEhvkRuG5EVSWCtm5pgU-13">
          <mxGeometry width="50" height="50" relative="1" as="geometry">
            <mxPoint x="210" y="301" as="sourcePoint" />
            <mxPoint x="560" y="261" as="targetPoint" />
            <Array as="points">
              <mxPoint x="200" y="301" />
              <mxPoint x="210" y="301" />
              <mxPoint x="340" y="301" />
              <mxPoint x="480" y="301" />
            </Array>
          </mxGeometry>
        </mxCell>
        <mxCell id="UzsjGgI-QkeKQyCokLh3-1" value="Subnet 1" style="sketch=0;outlineConnect=0;gradientColor=none;html=1;whiteSpace=wrap;fontSize=12;fontStyle=0;shape=mxgraph.aws4.group;grIcon=mxgraph.aws4.group_subnet;strokeColor=#879196;fillColor=none;verticalAlign=top;align=left;spacingLeft=30;fontColor=#879196;dashed=0;" vertex="1" parent="WEhvkRuG5EVSWCtm5pgU-4">
          <mxGeometry x="40" y="220" width="400" height="160" as="geometry" />
        </mxCell>
        <mxCell id="WEhvkRuG5EVSWCtm5pgU-19" value="&lt;b&gt;&lt;font size=&quot;1&quot;&gt;&lt;sup style=&quot;font-size: 6px;&quot;&gt;S3 Bucket&lt;/sup&gt;&lt;/font&gt;&lt;/b&gt;" style="sketch=0;points=[[0,0,0],[0.25,0,0],[0.5,0,0],[0.75,0,0],[1,0,0],[0,1,0],[0.25,1,0],[0.5,1,0],[0.75,1,0],[1,1,0],[0,0.25,0],[0,0.5,0],[0,0.75,0],[1,0.25,0],[1,0.5,0],[1,0.75,0]];outlineConnect=0;fontColor=#232F3E;fillColor=#7AA116;strokeColor=#ffffff;dashed=0;verticalLabelPosition=bottom;verticalAlign=top;align=center;html=1;fontSize=12;fontStyle=0;aspect=fixed;shape=mxgraph.aws4.resourceIcon;resIcon=mxgraph.aws4.s3;" vertex="1" parent="WEhvkRuG5EVSWCtm5pgU-3">
          <mxGeometry x="880" y="140.5" width="40" height="40" as="geometry" />
        </mxCell>
        <mxCell id="WEhvkRuG5EVSWCtm5pgU-20" value="&lt;font style=&quot;font-size: 6px;&quot;&gt;&lt;b&gt;DynamoDB&lt;/b&gt;&lt;/font&gt;" style="sketch=0;points=[[0,0,0],[0.25,0,0],[0.5,0,0],[0.75,0,0],[1,0,0],[0,1,0],[0.25,1,0],[0.5,1,0],[0.75,1,0],[1,1,0],[0,0.25,0],[0,0.5,0],[0,0.75,0],[1,0.25,0],[1,0.5,0],[1,0.75,0]];outlineConnect=0;fontColor=#232F3E;fillColor=#C925D1;strokeColor=#ffffff;dashed=0;verticalLabelPosition=bottom;verticalAlign=top;align=center;html=1;fontSize=12;fontStyle=0;aspect=fixed;shape=mxgraph.aws4.resourceIcon;resIcon=mxgraph.aws4.dynamodb;" vertex="1" parent="WEhvkRuG5EVSWCtm5pgU-3">
          <mxGeometry x="880" y="320.5" width="38" height="38" as="geometry" />
        </mxCell>
        <mxCell id="WEhvkRuG5EVSWCtm5pgU-21" style="edgeStyle=orthogonalEdgeStyle;rounded=0;orthogonalLoop=1;jettySize=auto;html=1;entryX=0;entryY=0.5;entryDx=0;entryDy=0;entryPerimeter=0;dashed=1;flowAnimation=1;" edge="1" parent="WEhvkRuG5EVSWCtm5pgU-3" source="WEhvkRuG5EVSWCtm5pgU-8" target="WEhvkRuG5EVSWCtm5pgU-19">
          <mxGeometry relative="1" as="geometry">
            <Array as="points">
              <mxPoint x="880" y="160" />
            </Array>
          </mxGeometry>
        </mxCell>
        <mxCell id="WEhvkRuG5EVSWCtm5pgU-22" style="edgeStyle=orthogonalEdgeStyle;rounded=0;orthogonalLoop=1;jettySize=auto;html=1;entryX=0;entryY=0.5;entryDx=0;entryDy=0;entryPerimeter=0;dashed=1;flowAnimation=1;" edge="1" parent="WEhvkRuG5EVSWCtm5pgU-3" source="WEhvkRuG5EVSWCtm5pgU-13" target="WEhvkRuG5EVSWCtm5pgU-20">
          <mxGeometry relative="1" as="geometry" />
        </mxCell>
      </root>
    </mxGraphModel>
  </diagram>
  <diagram id="tKaMYhSnZxLUrcIvVwNq" name="Interface Endpoints">
    <mxGraphModel dx="1101" dy="1609" grid="1" gridSize="10" guides="1" tooltips="1" connect="1" arrows="1" fold="1" page="1" pageScale="1" pageWidth="850" pageHeight="1100" math="0" shadow="0">
      <root>
        <mxCell id="0" />
        <mxCell id="1" parent="0" />
        <mxCell id="TA4HtBZvQY-seGKqt2xj-1" value="" style="rounded=0;whiteSpace=wrap;html=1;" vertex="1" parent="1">
          <mxGeometry x="280" y="200" width="1200" height="680" as="geometry" />
        </mxCell>
        <mxCell id="TA4HtBZvQY-seGKqt2xj-2" value="AWS Morocco Account" style="points=[[0,0],[0.25,0],[0.5,0],[0.75,0],[1,0],[1,0.25],[1,0.5],[1,0.75],[1,1],[0.75,1],[0.5,1],[0.25,1],[0,1],[0,0.75],[0,0.5],[0,0.25]];outlineConnect=0;gradientColor=none;html=1;whiteSpace=wrap;fontSize=12;fontStyle=0;container=1;pointerEvents=0;collapsible=0;recursiveResize=0;shape=mxgraph.aws4.group;grIcon=mxgraph.aws4.group_account;strokeColor=#CD2264;fillColor=none;verticalAlign=top;align=left;spacingLeft=30;fontColor=#CD2264;dashed=0;" vertex="1" parent="1">
          <mxGeometry x="320" y="240" width="1130" height="600" as="geometry" />
        </mxCell>
        <mxCell id="TA4HtBZvQY-seGKqt2xj-3" value="Region" style="points=[[0,0],[0.25,0],[0.5,0],[0.75,0],[1,0],[1,0.25],[1,0.5],[1,0.75],[1,1],[0.75,1],[0.5,1],[0.25,1],[0,1],[0,0.75],[0,0.5],[0,0.25]];outlineConnect=0;gradientColor=none;html=1;whiteSpace=wrap;fontSize=12;fontStyle=0;container=1;pointerEvents=0;collapsible=0;recursiveResize=0;shape=mxgraph.aws4.group;grIcon=mxgraph.aws4.group_region;strokeColor=#00A4A6;fillColor=none;verticalAlign=top;align=left;spacingLeft=30;fontColor=#147EBA;dashed=1;" vertex="1" parent="TA4HtBZvQY-seGKqt2xj-2">
          <mxGeometry x="40" y="40" width="1040" height="520" as="geometry" />
        </mxCell>
        <mxCell id="TA4HtBZvQY-seGKqt2xj-4" value="VPC" style="points=[[0,0],[0.25,0],[0.5,0],[0.75,0],[1,0],[1,0.25],[1,0.5],[1,0.75],[1,1],[0.75,1],[0.5,1],[0.25,1],[0,1],[0,0.75],[0,0.5],[0,0.25]];outlineConnect=0;gradientColor=none;html=1;whiteSpace=wrap;fontSize=12;fontStyle=0;container=1;pointerEvents=0;collapsible=0;recursiveResize=0;shape=mxgraph.aws4.group;grIcon=mxgraph.aws4.group_vpc2;strokeColor=#8C4FFF;fillColor=none;verticalAlign=top;align=left;spacingLeft=30;fontColor=#AAB7B8;dashed=0;" vertex="1" parent="TA4HtBZvQY-seGKqt2xj-3">
          <mxGeometry x="40" y="40" width="720" height="440" as="geometry" />
        </mxCell>
        <mxCell id="TA4HtBZvQY-seGKqt2xj-5" value="Subnet 1" style="sketch=0;outlineConnect=0;gradientColor=none;html=1;whiteSpace=wrap;fontSize=12;fontStyle=0;shape=mxgraph.aws4.group;grIcon=mxgraph.aws4.group_subnet;strokeColor=#879196;fillColor=none;verticalAlign=top;align=left;spacingLeft=30;fontColor=#879196;dashed=0;" vertex="1" parent="TA4HtBZvQY-seGKqt2xj-4">
          <mxGeometry x="40" y="40" width="400" height="160" as="geometry" />
        </mxCell>
        <mxCell id="TA4HtBZvQY-seGKqt2xj-6" value="Subnet 2" style="sketch=0;outlineConnect=0;gradientColor=none;html=1;whiteSpace=wrap;fontSize=12;fontStyle=0;shape=mxgraph.aws4.group;grIcon=mxgraph.aws4.group_subnet;strokeColor=#879196;fillColor=none;verticalAlign=top;align=left;spacingLeft=30;fontColor=#879196;dashed=0;" vertex="1" parent="TA4HtBZvQY-seGKqt2xj-4">
          <mxGeometry x="40" y="240" width="400" height="160" as="geometry" />
        </mxCell>
        <mxCell id="TA4HtBZvQY-seGKqt2xj-7" value="&lt;div style=&quot;font-size: 11px;&quot;&gt;&lt;font style=&quot;font-size: 11px;&quot;&gt;&lt;b&gt;&lt;sup&gt;&lt;font style=&quot;font-size: 11px;&quot;&gt;&lt;i&gt;VPC Interface&lt;/i&gt;&amp;nbsp;&lt;/font&gt;&lt;/sup&gt;&lt;/b&gt;&lt;/font&gt;&lt;/div&gt;&lt;div style=&quot;font-size: 11px;&quot;&gt;&lt;font style=&quot;font-size: 11px;&quot;&gt;&lt;sup&gt;&lt;font style=&quot;font-size: 11px;&quot;&gt;Elastic Network &lt;br&gt;&lt;/font&gt;&lt;/sup&gt;&lt;/font&gt;&lt;/div&gt;&lt;div style=&quot;font-size: 11px;&quot;&gt;&lt;font style=&quot;font-size: 11px;&quot;&gt;&lt;sup&gt;&lt;font style=&quot;font-size: 11px;&quot;&gt;Interface&lt;/font&gt;&lt;/sup&gt;&lt;b&gt;&lt;sup&gt;&lt;font style=&quot;font-size: 11px;&quot;&gt;&lt;br&gt;&lt;/font&gt;&lt;/sup&gt;&lt;/b&gt;&lt;/font&gt;&lt;/div&gt;" style="sketch=0;outlineConnect=0;fontColor=#232F3E;gradientColor=none;fillColor=#8C4FFF;strokeColor=none;dashed=0;verticalLabelPosition=bottom;verticalAlign=top;align=center;html=1;fontSize=12;fontStyle=0;aspect=fixed;pointerEvents=1;shape=mxgraph.aws4.elastic_network_interface;" vertex="1" parent="TA4HtBZvQY-seGKqt2xj-4">
          <mxGeometry x="320" y="299.5" width="39" height="39" as="geometry" />
        </mxCell>
        <mxCell id="TA4HtBZvQY-seGKqt2xj-15" value="" style="sketch=0;points=[[0,0,0],[0.25,0,0],[0.5,0,0],[0.75,0,0],[1,0,0],[0,1,0],[0.25,1,0],[0.5,1,0],[0.75,1,0],[1,1,0],[0,0.25,0],[0,0.5,0],[0,0.75,0],[1,0.25,0],[1,0.5,0],[1,0.75,0]];outlineConnect=0;fontColor=#232F3E;fillColor=#ED7100;strokeColor=#ffffff;dashed=0;verticalLabelPosition=bottom;verticalAlign=top;align=center;html=1;fontSize=12;fontStyle=0;aspect=fixed;shape=mxgraph.aws4.resourceIcon;resIcon=mxgraph.aws4.ec2;" vertex="1" parent="TA4HtBZvQY-seGKqt2xj-4">
          <mxGeometry x="119" y="100.5" width="39" height="39" as="geometry" />
        </mxCell>
        <mxCell id="P6LWH-uLQ87MdggzTTBS-2" style="edgeStyle=orthogonalEdgeStyle;rounded=0;orthogonalLoop=1;jettySize=auto;html=1;dashed=1;" edge="1" parent="TA4HtBZvQY-seGKqt2xj-4" source="TA4HtBZvQY-seGKqt2xj-16" target="P6LWH-uLQ87MdggzTTBS-1">
          <mxGeometry relative="1" as="geometry" />
        </mxCell>
        <mxCell id="TA4HtBZvQY-seGKqt2xj-16" value="" style="sketch=0;points=[[0,0,0],[0.25,0,0],[0.5,0,0],[0.75,0,0],[1,0,0],[0,1,0],[0.25,1,0],[0.5,1,0],[0.75,1,0],[1,1,0],[0,0.25,0],[0,0.5,0],[0,0.75,0],[1,0.25,0],[1,0.5,0],[1,0.75,0]];outlineConnect=0;fontColor=#232F3E;fillColor=#ED7100;strokeColor=#ffffff;dashed=0;verticalLabelPosition=bottom;verticalAlign=top;align=center;html=1;fontSize=12;fontStyle=0;aspect=fixed;shape=mxgraph.aws4.resourceIcon;resIcon=mxgraph.aws4.ec2;" vertex="1" parent="TA4HtBZvQY-seGKqt2xj-4">
          <mxGeometry x="180" y="100.5" width="39" height="39" as="geometry" />
        </mxCell>
        <mxCell id="TA4HtBZvQY-seGKqt2xj-17" style="edgeStyle=orthogonalEdgeStyle;rounded=0;orthogonalLoop=1;jettySize=auto;html=1;dashed=1;" edge="1" parent="TA4HtBZvQY-seGKqt2xj-4" source="TA4HtBZvQY-seGKqt2xj-18" target="TA4HtBZvQY-seGKqt2xj-7">
          <mxGeometry relative="1" as="geometry" />
        </mxCell>
        <mxCell id="TA4HtBZvQY-seGKqt2xj-18" value="" style="sketch=0;points=[[0,0,0],[0.25,0,0],[0.5,0,0],[0.75,0,0],[1,0,0],[0,1,0],[0.25,1,0],[0.5,1,0],[0.75,1,0],[1,1,0],[0,0.25,0],[0,0.5,0],[0,0.75,0],[1,0.25,0],[1,0.5,0],[1,0.75,0]];outlineConnect=0;fontColor=#232F3E;fillColor=#ED7100;strokeColor=#ffffff;dashed=0;verticalLabelPosition=bottom;verticalAlign=top;align=center;html=1;fontSize=12;fontStyle=0;aspect=fixed;shape=mxgraph.aws4.resourceIcon;resIcon=mxgraph.aws4.ec2;" vertex="1" parent="TA4HtBZvQY-seGKqt2xj-4">
          <mxGeometry x="119" y="298.5" width="40" height="40" as="geometry" />
        </mxCell>
        <mxCell id="P6LWH-uLQ87MdggzTTBS-1" value="&lt;div style=&quot;font-size: 11px;&quot;&gt;&lt;font style=&quot;font-size: 11px;&quot;&gt;&lt;b&gt;&lt;sup&gt;&lt;font style=&quot;font-size: 11px;&quot;&gt;&lt;i&gt;VPC Interface&lt;/i&gt;&amp;nbsp;&lt;/font&gt;&lt;/sup&gt;&lt;/b&gt;&lt;/font&gt;&lt;/div&gt;&lt;div style=&quot;font-size: 11px;&quot;&gt;&lt;font style=&quot;font-size: 11px;&quot;&gt;&lt;sup&gt;&lt;font style=&quot;font-size: 11px;&quot;&gt;Elastic Network &lt;br&gt;&lt;/font&gt;&lt;/sup&gt;&lt;/font&gt;&lt;/div&gt;&lt;div style=&quot;font-size: 11px;&quot;&gt;&lt;font style=&quot;font-size: 11px;&quot;&gt;&lt;sup&gt;&lt;font style=&quot;font-size: 11px;&quot;&gt;Interface&lt;/font&gt;&lt;/sup&gt;&lt;b&gt;&lt;sup&gt;&lt;font style=&quot;font-size: 11px;&quot;&gt;&lt;br&gt;&lt;/font&gt;&lt;/sup&gt;&lt;/b&gt;&lt;/font&gt;&lt;/div&gt;" style="sketch=0;outlineConnect=0;fontColor=#232F3E;gradientColor=none;fillColor=#8C4FFF;strokeColor=none;dashed=0;verticalLabelPosition=bottom;verticalAlign=top;align=center;html=1;fontSize=12;fontStyle=0;aspect=fixed;pointerEvents=1;shape=mxgraph.aws4.elastic_network_interface;" vertex="1" parent="TA4HtBZvQY-seGKqt2xj-4">
          <mxGeometry x="320" y="100.5" width="39" height="39" as="geometry" />
        </mxCell>
        <mxCell id="TA4HtBZvQY-seGKqt2xj-23" value="&lt;b&gt;&lt;font size=&quot;1&quot;&gt;&lt;sup style=&quot;font-size: 6px;&quot;&gt;S3 Bucket&lt;/sup&gt;&lt;/font&gt;&lt;/b&gt;" style="sketch=0;points=[[0,0,0],[0.25,0,0],[0.5,0,0],[0.75,0,0],[1,0,0],[0,1,0],[0.25,1,0],[0.5,1,0],[0.75,1,0],[1,1,0],[0,0.25,0],[0,0.5,0],[0,0.75,0],[1,0.25,0],[1,0.5,0],[1,0.75,0]];outlineConnect=0;fontColor=#232F3E;fillColor=#7AA116;strokeColor=#ffffff;dashed=0;verticalLabelPosition=bottom;verticalAlign=top;align=center;html=1;fontSize=12;fontStyle=0;aspect=fixed;shape=mxgraph.aws4.resourceIcon;resIcon=mxgraph.aws4.s3;" vertex="1" parent="TA4HtBZvQY-seGKqt2xj-3">
          <mxGeometry x="830" y="189.5" width="40" height="40" as="geometry" />
        </mxCell>
        <mxCell id="TA4HtBZvQY-seGKqt2xj-24" value="&lt;font style=&quot;font-size: 6px;&quot;&gt;&lt;b&gt;DynamoDB&lt;/b&gt;&lt;/font&gt;" style="sketch=0;points=[[0,0,0],[0.25,0,0],[0.5,0,0],[0.75,0,0],[1,0,0],[0,1,0],[0.25,1,0],[0.5,1,0],[0.75,1,0],[1,1,0],[0,0.25,0],[0,0.5,0],[0,0.75,0],[1,0.25,0],[1,0.5,0],[1,0.75,0]];outlineConnect=0;fontColor=#232F3E;fillColor=#C925D1;strokeColor=#ffffff;dashed=0;verticalLabelPosition=bottom;verticalAlign=top;align=center;html=1;fontSize=12;fontStyle=0;aspect=fixed;shape=mxgraph.aws4.resourceIcon;resIcon=mxgraph.aws4.dynamodb;" vertex="1" parent="TA4HtBZvQY-seGKqt2xj-3">
          <mxGeometry x="830" y="269.5" width="40" height="40" as="geometry" />
        </mxCell>
        <mxCell id="TA4HtBZvQY-seGKqt2xj-25" value="" style="sketch=0;points=[[0,0,0],[0.25,0,0],[0.5,0,0],[0.75,0,0],[1,0,0],[0,1,0],[0.25,1,0],[0.5,1,0],[0.75,1,0],[1,1,0],[0,0.25,0],[0,0.5,0],[0,0.75,0],[1,0.25,0],[1,0.5,0],[1,0.75,0]];outlineConnect=0;fontColor=#232F3E;fillColor=#E7157B;strokeColor=#ffffff;dashed=0;verticalLabelPosition=bottom;verticalAlign=top;align=center;html=1;fontSize=12;fontStyle=0;aspect=fixed;shape=mxgraph.aws4.resourceIcon;resIcon=mxgraph.aws4.sns;" vertex="1" parent="TA4HtBZvQY-seGKqt2xj-3">
          <mxGeometry x="890" y="189.5" width="40" height="40" as="geometry" />
        </mxCell>
        <mxCell id="TA4HtBZvQY-seGKqt2xj-26" value="" style="sketch=0;points=[[0,0,0],[0.25,0,0],[0.5,0,0],[0.75,0,0],[1,0,0],[0,1,0],[0.25,1,0],[0.5,1,0],[0.75,1,0],[1,1,0],[0,0.25,0],[0,0.5,0],[0,0.75,0],[1,0.25,0],[1,0.5,0],[1,0.75,0]];outlineConnect=0;fontColor=#232F3E;fillColor=#E7157B;strokeColor=#ffffff;dashed=0;verticalLabelPosition=bottom;verticalAlign=top;align=center;html=1;fontSize=12;fontStyle=0;aspect=fixed;shape=mxgraph.aws4.resourceIcon;resIcon=mxgraph.aws4.sqs;" vertex="1" parent="TA4HtBZvQY-seGKqt2xj-3">
          <mxGeometry x="890" y="269.5" width="40" height="40" as="geometry" />
        </mxCell>
        <mxCell id="TA4HtBZvQY-seGKqt2xj-27" value="" style="sketch=0;points=[[0,0,0],[0.25,0,0],[0.5,0,0],[0.75,0,0],[1,0,0],[0,1,0],[0.25,1,0],[0.5,1,0],[0.75,1,0],[1,1,0],[0,0.25,0],[0,0.5,0],[0,0.75,0],[1,0.25,0],[1,0.5,0],[1,0.75,0]];points=[[0,0,0],[0.25,0,0],[0.5,0,0],[0.75,0,0],[1,0,0],[0,1,0],[0.25,1,0],[0.5,1,0],[0.75,1,0],[1,1,0],[0,0.25,0],[0,0.5,0],[0,0.75,0],[1,0.25,0],[1,0.5,0],[1,0.75,0]];outlineConnect=0;fontColor=#232F3E;fillColor=#E7157B;strokeColor=#ffffff;dashed=0;verticalLabelPosition=bottom;verticalAlign=top;align=center;html=1;fontSize=12;fontStyle=0;aspect=fixed;shape=mxgraph.aws4.resourceIcon;resIcon=mxgraph.aws4.cloudwatch_2;" vertex="1" parent="TA4HtBZvQY-seGKqt2xj-3">
          <mxGeometry x="950" y="189.5" width="40" height="40" as="geometry" />
        </mxCell>
        <mxCell id="TA4HtBZvQY-seGKqt2xj-28" value="&lt;b&gt;&lt;font style=&quot;font-size: 9px;&quot;&gt;More AWS Services ...&lt;/font&gt;&lt;/b&gt;" style="text;html=1;align=center;verticalAlign=middle;whiteSpace=wrap;rounded=0;" vertex="1" parent="TA4HtBZvQY-seGKqt2xj-3">
          <mxGeometry x="940" y="274.5" width="60" height="30" as="geometry" />
        </mxCell>
        <mxCell id="TA4HtBZvQY-seGKqt2xj-29" value="" style="rounded=0;whiteSpace=wrap;html=1;fillColor=none;opacity=20;dashed=1;" vertex="1" parent="TA4HtBZvQY-seGKqt2xj-3">
          <mxGeometry x="815" y="159.5" width="200" height="180" as="geometry" />
        </mxCell>
        <mxCell id="P6LWH-uLQ87MdggzTTBS-4" style="edgeStyle=orthogonalEdgeStyle;rounded=0;orthogonalLoop=1;jettySize=auto;html=1;entryX=0;entryY=0.75;entryDx=0;entryDy=0;dashed=1;" edge="1" parent="TA4HtBZvQY-seGKqt2xj-3" source="TA4HtBZvQY-seGKqt2xj-7" target="TA4HtBZvQY-seGKqt2xj-29">
          <mxGeometry relative="1" as="geometry" />
        </mxCell>
        <mxCell id="P6LWH-uLQ87MdggzTTBS-5" style="edgeStyle=orthogonalEdgeStyle;rounded=0;orthogonalLoop=1;jettySize=auto;html=1;entryX=0;entryY=0.25;entryDx=0;entryDy=0;dashed=1;" edge="1" parent="TA4HtBZvQY-seGKqt2xj-3" source="P6LWH-uLQ87MdggzTTBS-1" target="TA4HtBZvQY-seGKqt2xj-29">
          <mxGeometry relative="1" as="geometry" />
        </mxCell>
      </root>
    </mxGraphModel>
  </diagram>
  <diagram id="NAHT0B2lr29Lo8ty_rZQ" name="VPC CNI driver">
    <mxGraphModel dx="2766" dy="1609" grid="1" gridSize="10" guides="1" tooltips="1" connect="1" arrows="1" fold="1" page="1" pageScale="1" pageWidth="850" pageHeight="1100" math="0" shadow="0">
      <root>
        <mxCell id="0" />
        <mxCell id="1" parent="0" />
        <mxCell id="iwqGh-uwyj5NP6QBQ8iv-110" value="" style="rounded=0;whiteSpace=wrap;html=1;" vertex="1" parent="1">
          <mxGeometry x="280" y="80" width="1360" height="800" as="geometry" />
        </mxCell>
        <mxCell id="iwqGh-uwyj5NP6QBQ8iv-2" value="AWS Morocco Account" style="points=[[0,0],[0.25,0],[0.5,0],[0.75,0],[1,0],[1,0.25],[1,0.5],[1,0.75],[1,1],[0.75,1],[0.5,1],[0.25,1],[0,1],[0,0.75],[0,0.5],[0,0.25]];outlineConnect=0;gradientColor=none;html=1;whiteSpace=wrap;fontSize=12;fontStyle=0;container=1;pointerEvents=0;collapsible=0;recursiveResize=0;shape=mxgraph.aws4.group;grIcon=mxgraph.aws4.group_account;strokeColor=#CD2264;fillColor=none;verticalAlign=top;align=left;spacingLeft=30;fontColor=#CD2264;dashed=0;" vertex="1" parent="1">
          <mxGeometry x="320" y="120" width="1280" height="720" as="geometry" />
        </mxCell>
        <mxCell id="iwqGh-uwyj5NP6QBQ8iv-3" value="Region" style="points=[[0,0],[0.25,0],[0.5,0],[0.75,0],[1,0],[1,0.25],[1,0.5],[1,0.75],[1,1],[0.75,1],[0.5,1],[0.25,1],[0,1],[0,0.75],[0,0.5],[0,0.25]];outlineConnect=0;gradientColor=none;html=1;whiteSpace=wrap;fontSize=12;fontStyle=0;container=1;pointerEvents=0;collapsible=0;recursiveResize=0;shape=mxgraph.aws4.group;grIcon=mxgraph.aws4.group_region;strokeColor=#00A4A6;fillColor=none;verticalAlign=top;align=left;spacingLeft=30;fontColor=#147EBA;dashed=1;" vertex="1" parent="iwqGh-uwyj5NP6QBQ8iv-2">
          <mxGeometry x="40" y="40" width="840" height="640" as="geometry" />
        </mxCell>
        <mxCell id="iwqGh-uwyj5NP6QBQ8iv-4" value="VPC" style="points=[[0,0],[0.25,0],[0.5,0],[0.75,0],[1,0],[1,0.25],[1,0.5],[1,0.75],[1,1],[0.75,1],[0.5,1],[0.25,1],[0,1],[0,0.75],[0,0.5],[0,0.25]];outlineConnect=0;gradientColor=none;html=1;whiteSpace=wrap;fontSize=12;fontStyle=0;container=1;pointerEvents=0;collapsible=0;recursiveResize=0;shape=mxgraph.aws4.group;grIcon=mxgraph.aws4.group_vpc2;strokeColor=#8C4FFF;fillColor=none;verticalAlign=top;align=left;spacingLeft=30;fontColor=#AAB7B8;dashed=0;" vertex="1" parent="iwqGh-uwyj5NP6QBQ8iv-3">
          <mxGeometry x="40" y="40" width="760" height="560" as="geometry" />
        </mxCell>
        <mxCell id="iwqGh-uwyj5NP6QBQ8iv-17" value="" style="rounded=0;whiteSpace=wrap;html=1;fillColor=none;dashed=1;" vertex="1" parent="iwqGh-uwyj5NP6QBQ8iv-4">
          <mxGeometry x="40" y="40" width="680" height="480" as="geometry" />
        </mxCell>
        <mxCell id="iwqGh-uwyj5NP6QBQ8iv-18" value="" style="sketch=0;points=[[0,0,0],[0.25,0,0],[0.5,0,0],[0.75,0,0],[1,0,0],[0,1,0],[0.25,1,0],[0.5,1,0],[0.75,1,0],[1,1,0],[0,0.25,0],[0,0.5,0],[0,0.75,0],[1,0.25,0],[1,0.5,0],[1,0.75,0]];outlineConnect=0;fontColor=#232F3E;fillColor=#ED7100;strokeColor=#ffffff;dashed=0;verticalLabelPosition=bottom;verticalAlign=top;align=center;html=1;fontSize=12;fontStyle=0;aspect=fixed;shape=mxgraph.aws4.resourceIcon;resIcon=mxgraph.aws4.eks;" vertex="1" parent="iwqGh-uwyj5NP6QBQ8iv-4">
          <mxGeometry x="40" y="40" width="30" height="30" as="geometry" />
        </mxCell>
        <mxCell id="iwqGh-uwyj5NP6QBQ8iv-19" value="&lt;font color=&quot;#dd782d&quot; style=&quot;font-size: 11px;&quot;&gt;EKS Cluster&lt;/font&gt;" style="text;html=1;align=center;verticalAlign=middle;whiteSpace=wrap;rounded=0;" vertex="1" parent="iwqGh-uwyj5NP6QBQ8iv-4">
          <mxGeometry x="70" y="45" width="80" height="20" as="geometry" />
        </mxCell>
        <mxCell id="iwqGh-uwyj5NP6QBQ8iv-27" value="" style="rounded=0;whiteSpace=wrap;html=1;fillColor=none;dashed=1;opacity=50;" vertex="1" parent="iwqGh-uwyj5NP6QBQ8iv-4">
          <mxGeometry x="80" y="120" width="120" height="80" as="geometry" />
        </mxCell>
        <mxCell id="iwqGh-uwyj5NP6QBQ8iv-28" value="" style="aspect=fixed;sketch=0;html=1;dashed=0;whitespace=wrap;verticalLabelPosition=bottom;verticalAlign=top;fillColor=#2875E2;strokeColor=#ffffff;points=[[0.005,0.63,0],[0.1,0.2,0],[0.9,0.2,0],[0.5,0,0],[0.995,0.63,0],[0.72,0.99,0],[0.5,1,0],[0.28,0.99,0]];shape=mxgraph.kubernetes.icon2;kubernetesLabel=1;prIcon=node;opacity=50;" vertex="1" parent="iwqGh-uwyj5NP6QBQ8iv-4">
          <mxGeometry x="184" y="181" width="31.25" height="30" as="geometry" />
        </mxCell>
        <mxCell id="iwqGh-uwyj5NP6QBQ8iv-29" value="" style="rounded=0;whiteSpace=wrap;html=1;fillColor=none;dashed=1;opacity=50;" vertex="1" parent="iwqGh-uwyj5NP6QBQ8iv-4">
          <mxGeometry x="240" y="120" width="120" height="80" as="geometry" />
        </mxCell>
        <mxCell id="iwqGh-uwyj5NP6QBQ8iv-30" value="" style="aspect=fixed;sketch=0;html=1;dashed=0;whitespace=wrap;verticalLabelPosition=bottom;verticalAlign=top;fillColor=#2875E2;strokeColor=#ffffff;points=[[0.005,0.63,0],[0.1,0.2,0],[0.9,0.2,0],[0.5,0,0],[0.995,0.63,0],[0.72,0.99,0],[0.5,1,0],[0.28,0.99,0]];shape=mxgraph.kubernetes.icon2;kubernetesLabel=1;prIcon=node;opacity=50;" vertex="1" parent="iwqGh-uwyj5NP6QBQ8iv-4">
          <mxGeometry x="344" y="181" width="31.25" height="30" as="geometry" />
        </mxCell>
        <mxCell id="iwqGh-uwyj5NP6QBQ8iv-31" value="" style="rounded=0;whiteSpace=wrap;html=1;fillColor=none;dashed=1;opacity=50;" vertex="1" parent="iwqGh-uwyj5NP6QBQ8iv-4">
          <mxGeometry x="400" y="120" width="120" height="80" as="geometry" />
        </mxCell>
        <mxCell id="iwqGh-uwyj5NP6QBQ8iv-32" value="" style="aspect=fixed;sketch=0;html=1;dashed=0;whitespace=wrap;verticalLabelPosition=bottom;verticalAlign=top;fillColor=#2875E2;strokeColor=#ffffff;points=[[0.005,0.63,0],[0.1,0.2,0],[0.9,0.2,0],[0.5,0,0],[0.995,0.63,0],[0.72,0.99,0],[0.5,1,0],[0.28,0.99,0]];shape=mxgraph.kubernetes.icon2;kubernetesLabel=1;prIcon=node;opacity=50;" vertex="1" parent="iwqGh-uwyj5NP6QBQ8iv-4">
          <mxGeometry x="504" y="181" width="31.25" height="30" as="geometry" />
        </mxCell>
        <mxCell id="iwqGh-uwyj5NP6QBQ8iv-33" value="" style="rounded=0;whiteSpace=wrap;html=1;fillColor=none;dashed=1;opacity=50;" vertex="1" parent="iwqGh-uwyj5NP6QBQ8iv-4">
          <mxGeometry x="560" y="120" width="120" height="80" as="geometry" />
        </mxCell>
        <mxCell id="iwqGh-uwyj5NP6QBQ8iv-34" value="" style="aspect=fixed;sketch=0;html=1;dashed=0;whitespace=wrap;verticalLabelPosition=bottom;verticalAlign=top;fillColor=#2875E2;strokeColor=#ffffff;points=[[0.005,0.63,0],[0.1,0.2,0],[0.9,0.2,0],[0.5,0,0],[0.995,0.63,0],[0.72,0.99,0],[0.5,1,0],[0.28,0.99,0]];shape=mxgraph.kubernetes.icon2;kubernetesLabel=1;prIcon=node;opacity=50;" vertex="1" parent="iwqGh-uwyj5NP6QBQ8iv-4">
          <mxGeometry x="664" y="181" width="31.25" height="30" as="geometry" />
        </mxCell>
        <mxCell id="iwqGh-uwyj5NP6QBQ8iv-35" value="" style="rounded=0;whiteSpace=wrap;html=1;fillColor=none;dashed=1;" vertex="1" parent="iwqGh-uwyj5NP6QBQ8iv-4">
          <mxGeometry x="80" y="240" width="120" height="80" as="geometry" />
        </mxCell>
        <mxCell id="iwqGh-uwyj5NP6QBQ8iv-36" value="" style="aspect=fixed;sketch=0;html=1;dashed=0;whitespace=wrap;verticalLabelPosition=bottom;verticalAlign=top;fillColor=#2875E2;strokeColor=#ffffff;points=[[0.005,0.63,0],[0.1,0.2,0],[0.9,0.2,0],[0.5,0,0],[0.995,0.63,0],[0.72,0.99,0],[0.5,1,0],[0.28,0.99,0]];shape=mxgraph.kubernetes.icon2;kubernetesLabel=1;prIcon=node" vertex="1" parent="iwqGh-uwyj5NP6QBQ8iv-4">
          <mxGeometry x="184" y="301" width="31.25" height="30" as="geometry" />
        </mxCell>
        <mxCell id="iwqGh-uwyj5NP6QBQ8iv-37" value="" style="rounded=0;whiteSpace=wrap;html=1;fillColor=none;dashed=1;" vertex="1" parent="iwqGh-uwyj5NP6QBQ8iv-4">
          <mxGeometry x="240" y="240" width="120" height="80" as="geometry" />
        </mxCell>
        <mxCell id="iwqGh-uwyj5NP6QBQ8iv-38" value="" style="aspect=fixed;sketch=0;html=1;dashed=0;whitespace=wrap;verticalLabelPosition=bottom;verticalAlign=top;fillColor=#2875E2;strokeColor=#ffffff;points=[[0.005,0.63,0],[0.1,0.2,0],[0.9,0.2,0],[0.5,0,0],[0.995,0.63,0],[0.72,0.99,0],[0.5,1,0],[0.28,0.99,0]];shape=mxgraph.kubernetes.icon2;kubernetesLabel=1;prIcon=node" vertex="1" parent="iwqGh-uwyj5NP6QBQ8iv-4">
          <mxGeometry x="344" y="301" width="31.25" height="30" as="geometry" />
        </mxCell>
        <mxCell id="iwqGh-uwyj5NP6QBQ8iv-39" value="" style="rounded=0;whiteSpace=wrap;html=1;fillColor=none;dashed=1;" vertex="1" parent="iwqGh-uwyj5NP6QBQ8iv-4">
          <mxGeometry x="400" y="240" width="120" height="80" as="geometry" />
        </mxCell>
        <mxCell id="iwqGh-uwyj5NP6QBQ8iv-40" value="" style="aspect=fixed;sketch=0;html=1;dashed=0;whitespace=wrap;verticalLabelPosition=bottom;verticalAlign=top;fillColor=#2875E2;strokeColor=#ffffff;points=[[0.005,0.63,0],[0.1,0.2,0],[0.9,0.2,0],[0.5,0,0],[0.995,0.63,0],[0.72,0.99,0],[0.5,1,0],[0.28,0.99,0]];shape=mxgraph.kubernetes.icon2;kubernetesLabel=1;prIcon=node" vertex="1" parent="iwqGh-uwyj5NP6QBQ8iv-4">
          <mxGeometry x="504" y="301" width="31.25" height="30" as="geometry" />
        </mxCell>
        <mxCell id="iwqGh-uwyj5NP6QBQ8iv-41" value="" style="rounded=0;whiteSpace=wrap;html=1;fillColor=none;dashed=1;" vertex="1" parent="iwqGh-uwyj5NP6QBQ8iv-4">
          <mxGeometry x="560" y="240" width="120" height="80" as="geometry" />
        </mxCell>
        <mxCell id="iwqGh-uwyj5NP6QBQ8iv-42" value="" style="aspect=fixed;sketch=0;html=1;dashed=0;whitespace=wrap;verticalLabelPosition=bottom;verticalAlign=top;fillColor=#2875E2;strokeColor=#ffffff;points=[[0.005,0.63,0],[0.1,0.2,0],[0.9,0.2,0],[0.5,0,0],[0.995,0.63,0],[0.72,0.99,0],[0.5,1,0],[0.28,0.99,0]];shape=mxgraph.kubernetes.icon2;kubernetesLabel=1;prIcon=node" vertex="1" parent="iwqGh-uwyj5NP6QBQ8iv-4">
          <mxGeometry x="664" y="301" width="31.25" height="30" as="geometry" />
        </mxCell>
        <mxCell id="iwqGh-uwyj5NP6QBQ8iv-52" value="&lt;div style=&quot;font-size: 7px;&quot;&gt;&lt;font style=&quot;font-size: 7px;&quot;&gt;Service Account&amp;nbsp;&lt;/font&gt;&lt;/div&gt;&lt;div style=&quot;font-size: 7px;&quot;&gt;&lt;font style=&quot;font-size: 7px;&quot;&gt;Annotated with IAM Role ARN&lt;/font&gt;&lt;/div&gt;" style="aspect=fixed;sketch=0;html=1;dashed=0;whitespace=wrap;verticalLabelPosition=bottom;verticalAlign=top;fillColor=#2875E2;strokeColor=#ffffff;points=[[0.005,0.63,0],[0.1,0.2,0],[0.9,0.2,0],[0.5,0,0],[0.995,0.63,0],[0.72,0.99,0],[0.5,1,0],[0.28,0.99,0]];shape=mxgraph.kubernetes.icon2;kubernetesLabel=1;prIcon=sa" vertex="1" parent="iwqGh-uwyj5NP6QBQ8iv-4">
          <mxGeometry x="363" y="400" width="33.33" height="32" as="geometry" />
        </mxCell>
        <mxCell id="iwqGh-uwyj5NP6QBQ8iv-72" value="" style="aspect=fixed;sketch=0;html=1;dashed=0;whitespace=wrap;verticalLabelPosition=bottom;verticalAlign=top;points=[[0.005,0.63,0],[0.1,0.2,0],[0.9,0.2,0],[0.5,0,0],[0.995,0.63,0],[0.72,0.99,0],[0.5,1,0],[0.28,0.99,0]];shape=mxgraph.kubernetes.icon2;kubernetesLabel=1;prIcon=pod;opacity=50;" vertex="1" parent="iwqGh-uwyj5NP6QBQ8iv-4">
          <mxGeometry x="90" y="170" width="25" height="24" as="geometry" />
        </mxCell>
        <mxCell id="iwqGh-uwyj5NP6QBQ8iv-73" value="&lt;div style=&quot;font-size: 8px;&quot;&gt;&lt;font style=&quot;font-size: 8px;&quot;&gt;&lt;b&gt;AWS Node&amp;nbsp;&lt;/b&gt;&lt;/font&gt;&lt;/div&gt;&lt;div style=&quot;font-size: 8px;&quot;&gt;&lt;font style=&quot;font-size: 8px;&quot;&gt;&lt;b&gt;&lt;font style=&quot;font-size: 8px;&quot;&gt;Daemon&lt;/font&gt;&lt;code data-lang=&quot;yaml&quot; class=&quot;language-yaml&quot;&gt;&lt;span style=&quot;display:flex&quot;&gt;&lt;span&gt;&lt;font style=&quot;font-size: 8px;&quot;&gt;&lt;br&gt;&lt;/font&gt;&lt;/span&gt;&lt;/span&gt;&lt;/code&gt;&lt;/b&gt;&lt;/font&gt;&lt;/div&gt;" style="text;html=1;align=center;verticalAlign=middle;whiteSpace=wrap;rounded=0;opacity=50;" vertex="1" parent="iwqGh-uwyj5NP6QBQ8iv-4">
          <mxGeometry x="109" y="178" width="60" height="19" as="geometry" />
        </mxCell>
        <mxCell id="iwqGh-uwyj5NP6QBQ8iv-74" value="" style="aspect=fixed;sketch=0;html=1;dashed=0;whitespace=wrap;verticalLabelPosition=bottom;verticalAlign=top;points=[[0.005,0.63,0],[0.1,0.2,0],[0.9,0.2,0],[0.5,0,0],[0.995,0.63,0],[0.72,0.99,0],[0.5,1,0],[0.28,0.99,0]];shape=mxgraph.kubernetes.icon2;kubernetesLabel=1;prIcon=pod;opacity=50;" vertex="1" parent="iwqGh-uwyj5NP6QBQ8iv-4">
          <mxGeometry x="250" y="167" width="25" height="24" as="geometry" />
        </mxCell>
        <mxCell id="iwqGh-uwyj5NP6QBQ8iv-75" value="&lt;div style=&quot;font-size: 8px;&quot;&gt;&lt;font style=&quot;font-size: 8px;&quot;&gt;&lt;b&gt;AWS Node&amp;nbsp;&lt;/b&gt;&lt;/font&gt;&lt;/div&gt;&lt;div style=&quot;font-size: 8px;&quot;&gt;&lt;font style=&quot;font-size: 8px;&quot;&gt;&lt;b&gt;&lt;font style=&quot;font-size: 8px;&quot;&gt;Daemon&lt;/font&gt;&lt;code data-lang=&quot;yaml&quot; class=&quot;language-yaml&quot;&gt;&lt;span style=&quot;display:flex&quot;&gt;&lt;span&gt;&lt;font style=&quot;font-size: 8px;&quot;&gt;&lt;br&gt;&lt;/font&gt;&lt;/span&gt;&lt;/span&gt;&lt;/code&gt;&lt;/b&gt;&lt;/font&gt;&lt;/div&gt;" style="text;html=1;align=center;verticalAlign=middle;whiteSpace=wrap;rounded=0;opacity=50;" vertex="1" parent="iwqGh-uwyj5NP6QBQ8iv-4">
          <mxGeometry x="269" y="175" width="60" height="19" as="geometry" />
        </mxCell>
        <mxCell id="iwqGh-uwyj5NP6QBQ8iv-76" value="" style="aspect=fixed;sketch=0;html=1;dashed=0;whitespace=wrap;verticalLabelPosition=bottom;verticalAlign=top;points=[[0.005,0.63,0],[0.1,0.2,0],[0.9,0.2,0],[0.5,0,0],[0.995,0.63,0],[0.72,0.99,0],[0.5,1,0],[0.28,0.99,0]];shape=mxgraph.kubernetes.icon2;kubernetesLabel=1;prIcon=pod;opacity=50;" vertex="1" parent="iwqGh-uwyj5NP6QBQ8iv-4">
          <mxGeometry x="410" y="168.5" width="25" height="24" as="geometry" />
        </mxCell>
        <mxCell id="iwqGh-uwyj5NP6QBQ8iv-77" value="&lt;div style=&quot;font-size: 8px;&quot;&gt;&lt;font style=&quot;font-size: 8px;&quot;&gt;&lt;b&gt;AWS Node&amp;nbsp;&lt;/b&gt;&lt;/font&gt;&lt;/div&gt;&lt;div style=&quot;font-size: 8px;&quot;&gt;&lt;font style=&quot;font-size: 8px;&quot;&gt;&lt;b&gt;&lt;font style=&quot;font-size: 8px;&quot;&gt;Daemon&lt;/font&gt;&lt;code data-lang=&quot;yaml&quot; class=&quot;language-yaml&quot;&gt;&lt;span style=&quot;display:flex&quot;&gt;&lt;span&gt;&lt;font style=&quot;font-size: 8px;&quot;&gt;&lt;br&gt;&lt;/font&gt;&lt;/span&gt;&lt;/span&gt;&lt;/code&gt;&lt;/b&gt;&lt;/font&gt;&lt;/div&gt;" style="text;html=1;align=center;verticalAlign=middle;whiteSpace=wrap;rounded=0;opacity=50;" vertex="1" parent="iwqGh-uwyj5NP6QBQ8iv-4">
          <mxGeometry x="429" y="176.5" width="60" height="19" as="geometry" />
        </mxCell>
        <mxCell id="iwqGh-uwyj5NP6QBQ8iv-78" value="" style="aspect=fixed;sketch=0;html=1;dashed=0;whitespace=wrap;verticalLabelPosition=bottom;verticalAlign=top;points=[[0.005,0.63,0],[0.1,0.2,0],[0.9,0.2,0],[0.5,0,0],[0.995,0.63,0],[0.72,0.99,0],[0.5,1,0],[0.28,0.99,0]];shape=mxgraph.kubernetes.icon2;kubernetesLabel=1;prIcon=pod;opacity=50;" vertex="1" parent="iwqGh-uwyj5NP6QBQ8iv-4">
          <mxGeometry x="570" y="165.5" width="25" height="24" as="geometry" />
        </mxCell>
        <mxCell id="iwqGh-uwyj5NP6QBQ8iv-79" value="&lt;div style=&quot;font-size: 8px;&quot;&gt;&lt;font style=&quot;font-size: 8px;&quot;&gt;&lt;b&gt;AWS Node&amp;nbsp;&lt;/b&gt;&lt;/font&gt;&lt;/div&gt;&lt;div style=&quot;font-size: 8px;&quot;&gt;&lt;font style=&quot;font-size: 8px;&quot;&gt;&lt;b&gt;&lt;font style=&quot;font-size: 8px;&quot;&gt;Daemon&lt;/font&gt;&lt;code data-lang=&quot;yaml&quot; class=&quot;language-yaml&quot;&gt;&lt;span style=&quot;display:flex&quot;&gt;&lt;span&gt;&lt;font style=&quot;font-size: 8px;&quot;&gt;&lt;br&gt;&lt;/font&gt;&lt;/span&gt;&lt;/span&gt;&lt;/code&gt;&lt;/b&gt;&lt;/font&gt;&lt;/div&gt;" style="text;html=1;align=center;verticalAlign=middle;whiteSpace=wrap;rounded=0;" vertex="1" parent="iwqGh-uwyj5NP6QBQ8iv-4">
          <mxGeometry x="589" y="173.5" width="60" height="19" as="geometry" />
        </mxCell>
        <mxCell id="iwqGh-uwyj5NP6QBQ8iv-84" value="" style="aspect=fixed;sketch=0;html=1;dashed=0;whitespace=wrap;verticalLabelPosition=bottom;verticalAlign=top;points=[[0.005,0.63,0],[0.1,0.2,0],[0.9,0.2,0],[0.5,0,0],[0.995,0.63,0],[0.72,0.99,0],[0.5,1,0],[0.28,0.99,0]];shape=mxgraph.kubernetes.icon2;kubernetesLabel=1;prIcon=pod;" vertex="1" parent="iwqGh-uwyj5NP6QBQ8iv-4">
          <mxGeometry x="90" y="290" width="25" height="24" as="geometry" />
        </mxCell>
        <mxCell id="iwqGh-uwyj5NP6QBQ8iv-85" value="&lt;div style=&quot;font-size: 8px;&quot;&gt;&lt;font style=&quot;font-size: 8px;&quot;&gt;&lt;b&gt;AWS Node&amp;nbsp;&lt;/b&gt;&lt;/font&gt;&lt;/div&gt;&lt;div style=&quot;font-size: 8px;&quot;&gt;&lt;font style=&quot;font-size: 8px;&quot;&gt;&lt;b&gt;&lt;font style=&quot;font-size: 8px;&quot;&gt;Daemon&lt;/font&gt;&lt;code data-lang=&quot;yaml&quot; class=&quot;language-yaml&quot;&gt;&lt;span style=&quot;display:flex&quot;&gt;&lt;span&gt;&lt;font style=&quot;font-size: 8px;&quot;&gt;&lt;br&gt;&lt;/font&gt;&lt;/span&gt;&lt;/span&gt;&lt;/code&gt;&lt;/b&gt;&lt;/font&gt;&lt;/div&gt;" style="text;html=1;align=center;verticalAlign=middle;whiteSpace=wrap;rounded=0;" vertex="1" parent="iwqGh-uwyj5NP6QBQ8iv-4">
          <mxGeometry x="109" y="298" width="60" height="19" as="geometry" />
        </mxCell>
        <mxCell id="iwqGh-uwyj5NP6QBQ8iv-86" value="" style="aspect=fixed;sketch=0;html=1;dashed=0;whitespace=wrap;verticalLabelPosition=bottom;verticalAlign=top;points=[[0.005,0.63,0],[0.1,0.2,0],[0.9,0.2,0],[0.5,0,0],[0.995,0.63,0],[0.72,0.99,0],[0.5,1,0],[0.28,0.99,0]];shape=mxgraph.kubernetes.icon2;kubernetesLabel=1;prIcon=pod;" vertex="1" parent="iwqGh-uwyj5NP6QBQ8iv-4">
          <mxGeometry x="250" y="290" width="25" height="24" as="geometry" />
        </mxCell>
        <mxCell id="iwqGh-uwyj5NP6QBQ8iv-87" value="&lt;div style=&quot;font-size: 8px;&quot;&gt;&lt;font style=&quot;font-size: 8px;&quot;&gt;&lt;b&gt;AWS Node&amp;nbsp;&lt;/b&gt;&lt;/font&gt;&lt;/div&gt;&lt;div style=&quot;font-size: 8px;&quot;&gt;&lt;font style=&quot;font-size: 8px;&quot;&gt;&lt;b&gt;&lt;font style=&quot;font-size: 8px;&quot;&gt;Daemon&lt;/font&gt;&lt;code data-lang=&quot;yaml&quot; class=&quot;language-yaml&quot;&gt;&lt;span style=&quot;display:flex&quot;&gt;&lt;span&gt;&lt;font style=&quot;font-size: 8px;&quot;&gt;&lt;br&gt;&lt;/font&gt;&lt;/span&gt;&lt;/span&gt;&lt;/code&gt;&lt;/b&gt;&lt;/font&gt;&lt;/div&gt;" style="text;html=1;align=center;verticalAlign=middle;whiteSpace=wrap;rounded=0;" vertex="1" parent="iwqGh-uwyj5NP6QBQ8iv-4">
          <mxGeometry x="269" y="298" width="60" height="19" as="geometry" />
        </mxCell>
        <mxCell id="iwqGh-uwyj5NP6QBQ8iv-88" value="" style="aspect=fixed;sketch=0;html=1;dashed=0;whitespace=wrap;verticalLabelPosition=bottom;verticalAlign=top;points=[[0.005,0.63,0],[0.1,0.2,0],[0.9,0.2,0],[0.5,0,0],[0.995,0.63,0],[0.72,0.99,0],[0.5,1,0],[0.28,0.99,0]];shape=mxgraph.kubernetes.icon2;kubernetesLabel=1;prIcon=pod;" vertex="1" parent="iwqGh-uwyj5NP6QBQ8iv-4">
          <mxGeometry x="410" y="290" width="25" height="24" as="geometry" />
        </mxCell>
        <mxCell id="iwqGh-uwyj5NP6QBQ8iv-89" value="&lt;div style=&quot;font-size: 8px;&quot;&gt;&lt;font style=&quot;font-size: 8px;&quot;&gt;&lt;b&gt;AWS Node&amp;nbsp;&lt;/b&gt;&lt;/font&gt;&lt;/div&gt;&lt;div style=&quot;font-size: 8px;&quot;&gt;&lt;font style=&quot;font-size: 8px;&quot;&gt;&lt;b&gt;&lt;font style=&quot;font-size: 8px;&quot;&gt;Daemon&lt;/font&gt;&lt;code data-lang=&quot;yaml&quot; class=&quot;language-yaml&quot;&gt;&lt;span style=&quot;display:flex&quot;&gt;&lt;span&gt;&lt;font style=&quot;font-size: 8px;&quot;&gt;&lt;br&gt;&lt;/font&gt;&lt;/span&gt;&lt;/span&gt;&lt;/code&gt;&lt;/b&gt;&lt;/font&gt;&lt;/div&gt;" style="text;html=1;align=center;verticalAlign=middle;whiteSpace=wrap;rounded=0;" vertex="1" parent="iwqGh-uwyj5NP6QBQ8iv-4">
          <mxGeometry x="429" y="298" width="60" height="19" as="geometry" />
        </mxCell>
        <mxCell id="iwqGh-uwyj5NP6QBQ8iv-90" value="" style="aspect=fixed;sketch=0;html=1;dashed=0;whitespace=wrap;verticalLabelPosition=bottom;verticalAlign=top;points=[[0.005,0.63,0],[0.1,0.2,0],[0.9,0.2,0],[0.5,0,0],[0.995,0.63,0],[0.72,0.99,0],[0.5,1,0],[0.28,0.99,0]];shape=mxgraph.kubernetes.icon2;kubernetesLabel=1;prIcon=pod;" vertex="1" parent="iwqGh-uwyj5NP6QBQ8iv-4">
          <mxGeometry x="570" y="290" width="25" height="24" as="geometry" />
        </mxCell>
        <mxCell id="iwqGh-uwyj5NP6QBQ8iv-91" value="&lt;div style=&quot;font-size: 8px;&quot;&gt;&lt;font style=&quot;font-size: 8px;&quot;&gt;&lt;b&gt;AWS Node&amp;nbsp;&lt;/b&gt;&lt;/font&gt;&lt;/div&gt;&lt;div style=&quot;font-size: 8px;&quot;&gt;&lt;font style=&quot;font-size: 8px;&quot;&gt;&lt;b&gt;&lt;font style=&quot;font-size: 8px;&quot;&gt;Daemon&lt;/font&gt;&lt;code data-lang=&quot;yaml&quot; class=&quot;language-yaml&quot;&gt;&lt;span style=&quot;display:flex&quot;&gt;&lt;span&gt;&lt;font style=&quot;font-size: 8px;&quot;&gt;&lt;br&gt;&lt;/font&gt;&lt;/span&gt;&lt;/span&gt;&lt;/code&gt;&lt;/b&gt;&lt;/font&gt;&lt;/div&gt;" style="text;html=1;align=center;verticalAlign=middle;whiteSpace=wrap;rounded=0;" vertex="1" parent="iwqGh-uwyj5NP6QBQ8iv-4">
          <mxGeometry x="589" y="298" width="60" height="19" as="geometry" />
        </mxCell>
        <mxCell id="iwqGh-uwyj5NP6QBQ8iv-92" style="edgeStyle=orthogonalEdgeStyle;rounded=0;orthogonalLoop=1;jettySize=auto;html=1;entryX=0.005;entryY=0.63;entryDx=0;entryDy=0;entryPerimeter=0;exitX=0.5;exitY=1;exitDx=0;exitDy=0;exitPerimeter=0;strokeColor=#0432ff;dashed=1;jumpSize=4;" edge="1" parent="iwqGh-uwyj5NP6QBQ8iv-4" source="iwqGh-uwyj5NP6QBQ8iv-84" target="iwqGh-uwyj5NP6QBQ8iv-52">
          <mxGeometry relative="1" as="geometry">
            <Array as="points">
              <mxPoint x="100" y="314" />
              <mxPoint x="100" y="420" />
            </Array>
          </mxGeometry>
        </mxCell>
        <mxCell id="iwqGh-uwyj5NP6QBQ8iv-93" style="edgeStyle=orthogonalEdgeStyle;rounded=0;orthogonalLoop=1;jettySize=auto;html=1;dashed=1;strokeColor=#0432ff;" edge="1" parent="iwqGh-uwyj5NP6QBQ8iv-4" source="iwqGh-uwyj5NP6QBQ8iv-86">
          <mxGeometry relative="1" as="geometry">
            <mxPoint x="370" y="400" as="targetPoint" />
            <Array as="points">
              <mxPoint x="263" y="400" />
            </Array>
          </mxGeometry>
        </mxCell>
        <mxCell id="iwqGh-uwyj5NP6QBQ8iv-95" style="edgeStyle=orthogonalEdgeStyle;rounded=0;orthogonalLoop=1;jettySize=auto;html=1;entryX=0.808;entryY=0.011;entryDx=0;entryDy=0;entryPerimeter=0;dashed=1;strokeColor=#0432ff;" edge="1" parent="iwqGh-uwyj5NP6QBQ8iv-4" source="iwqGh-uwyj5NP6QBQ8iv-88" target="iwqGh-uwyj5NP6QBQ8iv-52">
          <mxGeometry relative="1" as="geometry">
            <Array as="points">
              <mxPoint x="423" y="400" />
            </Array>
          </mxGeometry>
        </mxCell>
        <mxCell id="iwqGh-uwyj5NP6QBQ8iv-96" style="edgeStyle=orthogonalEdgeStyle;rounded=0;orthogonalLoop=1;jettySize=auto;html=1;entryX=0.995;entryY=0.63;entryDx=0;entryDy=0;entryPerimeter=0;strokeColor=#0432ff;dashed=1;" edge="1" parent="iwqGh-uwyj5NP6QBQ8iv-4" source="iwqGh-uwyj5NP6QBQ8iv-90" target="iwqGh-uwyj5NP6QBQ8iv-52">
          <mxGeometry relative="1" as="geometry">
            <Array as="points">
              <mxPoint x="582" y="420" />
            </Array>
          </mxGeometry>
        </mxCell>
        <mxCell id="iwqGh-uwyj5NP6QBQ8iv-20" value="" style="rounded=0;whiteSpace=wrap;html=1;fillColor=none;dashed=1;" vertex="1" parent="iwqGh-uwyj5NP6QBQ8iv-2">
          <mxGeometry x="960" y="40" width="280" height="640" as="geometry" />
        </mxCell>
        <mxCell id="iwqGh-uwyj5NP6QBQ8iv-21" value="" style="sketch=0;points=[[0,0,0],[0.25,0,0],[0.5,0,0],[0.75,0,0],[1,0,0],[0,1,0],[0.25,1,0],[0.5,1,0],[0.75,1,0],[1,1,0],[0,0.25,0],[0,0.5,0],[0,0.75,0],[1,0.25,0],[1,0.5,0],[1,0.75,0]];outlineConnect=0;fontColor=#232F3E;fillColor=#DD344C;strokeColor=#ffffff;dashed=0;verticalLabelPosition=bottom;verticalAlign=top;align=center;html=1;fontSize=12;fontStyle=0;aspect=fixed;shape=mxgraph.aws4.resourceIcon;resIcon=mxgraph.aws4.identity_and_access_management;" vertex="1" parent="iwqGh-uwyj5NP6QBQ8iv-2">
          <mxGeometry x="959" y="40" width="30" height="30" as="geometry" />
        </mxCell>
        <mxCell id="iwqGh-uwyj5NP6QBQ8iv-26" value="&lt;font color=&quot;#cb4450&quot;&gt;AWS IAM&lt;br&gt;&lt;/font&gt;" style="text;html=1;align=center;verticalAlign=middle;whiteSpace=wrap;rounded=0;" vertex="1" parent="iwqGh-uwyj5NP6QBQ8iv-2">
          <mxGeometry x="989" y="45" width="80" height="20" as="geometry" />
        </mxCell>
        <mxCell id="iwqGh-uwyj5NP6QBQ8iv-50" style="edgeStyle=orthogonalEdgeStyle;rounded=0;orthogonalLoop=1;jettySize=auto;html=1;dashed=1;" edge="1" parent="iwqGh-uwyj5NP6QBQ8iv-2" source="iwqGh-uwyj5NP6QBQ8iv-43" target="iwqGh-uwyj5NP6QBQ8iv-46">
          <mxGeometry relative="1" as="geometry">
            <Array as="points">
              <mxPoint x="1056" y="370" />
            </Array>
          </mxGeometry>
        </mxCell>
        <mxCell id="iwqGh-uwyj5NP6QBQ8iv-43" value="&lt;div style=&quot;font-size: 7px;&quot;&gt;&lt;font style=&quot;font-size: 7px;&quot;&gt;IAM Trust&lt;/font&gt;&lt;/div&gt;&lt;div style=&quot;font-size: 7px;&quot;&gt;&lt;font style=&quot;font-size: 7px;&quot;&gt;Policy&lt;/font&gt;&lt;br&gt;&lt;/div&gt;" style="sketch=0;outlineConnect=0;fontColor=#232F3E;gradientColor=none;fillColor=#DD344C;strokeColor=none;dashed=0;verticalLabelPosition=bottom;verticalAlign=top;align=center;html=1;fontSize=12;fontStyle=0;aspect=fixed;pointerEvents=1;shape=mxgraph.aws4.sts;" vertex="1" parent="iwqGh-uwyj5NP6QBQ8iv-2">
          <mxGeometry x="1040" y="450" width="31.2" height="20" as="geometry" />
        </mxCell>
        <mxCell id="iwqGh-uwyj5NP6QBQ8iv-100" style="edgeStyle=orthogonalEdgeStyle;rounded=0;orthogonalLoop=1;jettySize=auto;html=1;" edge="1" parent="iwqGh-uwyj5NP6QBQ8iv-2" source="iwqGh-uwyj5NP6QBQ8iv-45" target="iwqGh-uwyj5NP6QBQ8iv-46">
          <mxGeometry relative="1" as="geometry" />
        </mxCell>
        <mxCell id="iwqGh-uwyj5NP6QBQ8iv-101" value="Temporary credentials" style="edgeLabel;html=1;align=center;verticalAlign=middle;resizable=0;points=[];" vertex="1" connectable="0" parent="iwqGh-uwyj5NP6QBQ8iv-100">
          <mxGeometry x="-0.2617" y="2" relative="1" as="geometry">
            <mxPoint as="offset" />
          </mxGeometry>
        </mxCell>
        <mxCell id="iwqGh-uwyj5NP6QBQ8iv-45" value="" style="sketch=0;outlineConnect=0;fontColor=#232F3E;gradientColor=none;fillColor=#DD344C;strokeColor=none;dashed=0;verticalLabelPosition=bottom;verticalAlign=top;align=center;html=1;fontSize=12;fontStyle=0;aspect=fixed;pointerEvents=1;shape=mxgraph.aws4.sts_alternate;" vertex="1" parent="iwqGh-uwyj5NP6QBQ8iv-2">
          <mxGeometry x="1079.14" y="150" width="39.74" height="50" as="geometry" />
        </mxCell>
        <mxCell id="iwqGh-uwyj5NP6QBQ8iv-46" value="&lt;font style=&quot;font-size: 7px;&quot;&gt;AWS IAM Role&lt;/font&gt;" style="sketch=0;outlineConnect=0;fontColor=#232F3E;gradientColor=none;fillColor=#DD344C;strokeColor=none;dashed=0;verticalLabelPosition=bottom;verticalAlign=top;align=center;html=1;fontSize=12;fontStyle=0;aspect=fixed;pointerEvents=1;shape=mxgraph.aws4.role;" vertex="1" parent="iwqGh-uwyj5NP6QBQ8iv-2">
          <mxGeometry x="1075.97" y="360" width="46.09" height="26" as="geometry" />
        </mxCell>
        <mxCell id="iwqGh-uwyj5NP6QBQ8iv-51" style="edgeStyle=orthogonalEdgeStyle;rounded=0;orthogonalLoop=1;jettySize=auto;html=1;dashed=1;strokeWidth=1;" edge="1" parent="iwqGh-uwyj5NP6QBQ8iv-2" source="iwqGh-uwyj5NP6QBQ8iv-48" target="iwqGh-uwyj5NP6QBQ8iv-46">
          <mxGeometry relative="1" as="geometry">
            <Array as="points">
              <mxPoint x="1140" y="370" />
            </Array>
          </mxGeometry>
        </mxCell>
        <mxCell id="iwqGh-uwyj5NP6QBQ8iv-48" value="&lt;div&gt;&lt;sup&gt;&lt;font style=&quot;font-size: 7px;&quot;&gt;Permission Policy&lt;/font&gt;&lt;/sup&gt;&lt;/div&gt;" style="sketch=0;outlineConnect=0;fontColor=#232F3E;gradientColor=none;fillColor=#7AA116;strokeColor=none;dashed=0;verticalLabelPosition=bottom;verticalAlign=top;align=center;html=1;fontSize=12;fontStyle=0;aspect=fixed;pointerEvents=1;shape=mxgraph.aws4.policy;" vertex="1" parent="iwqGh-uwyj5NP6QBQ8iv-2">
          <mxGeometry x="1130" y="450" width="23.29" height="20" as="geometry" />
        </mxCell>
        <mxCell id="iwqGh-uwyj5NP6QBQ8iv-98" style="edgeStyle=orthogonalEdgeStyle;rounded=0;orthogonalLoop=1;jettySize=auto;html=1;" edge="1" parent="iwqGh-uwyj5NP6QBQ8iv-2" target="iwqGh-uwyj5NP6QBQ8iv-46">
          <mxGeometry relative="1" as="geometry">
            <mxPoint x="460" y="540" as="sourcePoint" />
            <Array as="points">
              <mxPoint x="460" y="560" />
              <mxPoint x="1099" y="560" />
            </Array>
          </mxGeometry>
        </mxCell>
        <mxCell id="iwqGh-uwyj5NP6QBQ8iv-99" value="Annotated with IAM Role ARN" style="edgeLabel;html=1;align=center;verticalAlign=middle;resizable=0;points=[];" vertex="1" connectable="0" parent="iwqGh-uwyj5NP6QBQ8iv-98">
          <mxGeometry x="-0.2184" y="-1" relative="1" as="geometry">
            <mxPoint as="offset" />
          </mxGeometry>
        </mxCell>
        <mxCell id="iwqGh-uwyj5NP6QBQ8iv-102" style="edgeStyle=orthogonalEdgeStyle;rounded=0;orthogonalLoop=1;jettySize=auto;html=1;fillColor=#e51400;strokeColor=#B20000;" edge="1" parent="iwqGh-uwyj5NP6QBQ8iv-2" source="iwqGh-uwyj5NP6QBQ8iv-91" target="iwqGh-uwyj5NP6QBQ8iv-45">
          <mxGeometry relative="1" as="geometry">
            <Array as="points">
              <mxPoint x="699" y="310" />
              <mxPoint x="910" y="310" />
              <mxPoint x="910" y="175" />
            </Array>
          </mxGeometry>
        </mxCell>
        <mxCell id="iwqGh-uwyj5NP6QBQ8iv-103" style="edgeStyle=orthogonalEdgeStyle;rounded=0;orthogonalLoop=1;jettySize=auto;html=1;fillColor=#e51400;strokeColor=#B20000;" edge="1" parent="iwqGh-uwyj5NP6QBQ8iv-2" source="iwqGh-uwyj5NP6QBQ8iv-89" target="iwqGh-uwyj5NP6QBQ8iv-45">
          <mxGeometry relative="1" as="geometry">
            <Array as="points">
              <mxPoint x="539" y="310" />
              <mxPoint x="910" y="310" />
              <mxPoint x="910" y="175" />
            </Array>
          </mxGeometry>
        </mxCell>
        <mxCell id="iwqGh-uwyj5NP6QBQ8iv-104" style="edgeStyle=orthogonalEdgeStyle;rounded=0;orthogonalLoop=1;jettySize=auto;html=1;fillColor=#e51400;strokeColor=#B20000;" edge="1" parent="iwqGh-uwyj5NP6QBQ8iv-2" source="iwqGh-uwyj5NP6QBQ8iv-87" target="iwqGh-uwyj5NP6QBQ8iv-45">
          <mxGeometry relative="1" as="geometry">
            <Array as="points">
              <mxPoint x="379" y="310" />
              <mxPoint x="910" y="310" />
              <mxPoint x="910" y="175" />
            </Array>
          </mxGeometry>
        </mxCell>
        <mxCell id="iwqGh-uwyj5NP6QBQ8iv-105" style="edgeStyle=orthogonalEdgeStyle;rounded=0;orthogonalLoop=1;jettySize=auto;html=1;fillColor=#e51400;strokeColor=#B20000;" edge="1" parent="iwqGh-uwyj5NP6QBQ8iv-2" source="iwqGh-uwyj5NP6QBQ8iv-85" target="iwqGh-uwyj5NP6QBQ8iv-45">
          <mxGeometry relative="1" as="geometry">
            <Array as="points">
              <mxPoint x="219" y="310" />
              <mxPoint x="910" y="310" />
              <mxPoint x="910" y="175" />
            </Array>
          </mxGeometry>
        </mxCell>
        <mxCell id="iwqGh-uwyj5NP6QBQ8iv-106" style="edgeStyle=orthogonalEdgeStyle;rounded=0;orthogonalLoop=1;jettySize=auto;html=1;fillColor=#e51400;strokeColor=#B20000;" edge="1" parent="iwqGh-uwyj5NP6QBQ8iv-2" source="iwqGh-uwyj5NP6QBQ8iv-79" target="iwqGh-uwyj5NP6QBQ8iv-45">
          <mxGeometry relative="1" as="geometry">
            <Array as="points">
              <mxPoint x="699" y="175" />
            </Array>
          </mxGeometry>
        </mxCell>
        <mxCell id="iwqGh-uwyj5NP6QBQ8iv-107" style="edgeStyle=orthogonalEdgeStyle;rounded=0;orthogonalLoop=1;jettySize=auto;html=1;fillColor=#e51400;strokeColor=#B20000;" edge="1" parent="iwqGh-uwyj5NP6QBQ8iv-2" source="iwqGh-uwyj5NP6QBQ8iv-77" target="iwqGh-uwyj5NP6QBQ8iv-45">
          <mxGeometry relative="1" as="geometry">
            <Array as="points">
              <mxPoint x="539" y="175" />
            </Array>
          </mxGeometry>
        </mxCell>
        <mxCell id="iwqGh-uwyj5NP6QBQ8iv-108" style="edgeStyle=orthogonalEdgeStyle;rounded=0;orthogonalLoop=1;jettySize=auto;html=1;fillColor=#e51400;strokeColor=#B20000;" edge="1" parent="iwqGh-uwyj5NP6QBQ8iv-2" source="iwqGh-uwyj5NP6QBQ8iv-75" target="iwqGh-uwyj5NP6QBQ8iv-45">
          <mxGeometry relative="1" as="geometry">
            <Array as="points">
              <mxPoint x="379" y="175" />
            </Array>
          </mxGeometry>
        </mxCell>
        <mxCell id="iwqGh-uwyj5NP6QBQ8iv-109" style="edgeStyle=orthogonalEdgeStyle;rounded=0;orthogonalLoop=1;jettySize=auto;html=1;fillColor=#e51400;strokeColor=#B20000;" edge="1" parent="iwqGh-uwyj5NP6QBQ8iv-2" source="iwqGh-uwyj5NP6QBQ8iv-73" target="iwqGh-uwyj5NP6QBQ8iv-45">
          <mxGeometry relative="1" as="geometry">
            <Array as="points">
              <mxPoint x="219" y="175" />
            </Array>
          </mxGeometry>
        </mxCell>
      </root>
    </mxGraphModel>
  </diagram>
</mxfile>
